<?xml version="1.0" encoding="utf-8"?>
<!-- Generator: Adobe Illustrator 27.5.0, SVG Export Plug-In . SVG Version: 6.00 Build 0)  -->
<svg version="1.1" id="Layer_1" xmlns="http://www.w3.org/2000/svg" xmlns:xlink="http://www.w3.org/1999/xlink" x="0px" y="0px"
	 viewBox="0 0 800 800" style="enable-background:new 0 0 800 800;" xml:space="preserve">
<g>
	<path style="fill:none;" d="M267.588,278.163c0.024,0.031,0.049,0.061,0.073,0.092c-0.031-0.043-0.065-0.084-0.098-0.128
		L267.588,278.163z"/>
	<path style="fill:none;" d="M267.749,278.378c-0.035-0.047-0.071-0.092-0.106-0.139l0.016,0.022
		C267.688,278.3,267.72,278.339,267.749,278.378z"/>
	<path style="fill:none;" d="M218.202,450.984c0.051-0.045,0.102-0.09,0.155-0.135c-0.004,0.002-0.01,0.004-0.014,0.006
		C218.296,450.897,218.249,450.941,218.202,450.984z"/>
	<path style="fill:none;" d="M395.659,577.652c9.661,4.072,19.58,7.528,29.68,10.339c0.008-0.249,0.077-0.494,0.204-0.71
		c0.177-0.304,0.537-0.639,0.9-0.693c2.242-0.331,4.481-0.703,6.712-1.107c0.095-0.056,0.194-0.104,0.295-0.146
		c0.201-0.169,0.433-0.3,0.676-0.347c17.24-3.294,34.178-8.323,50.365-15.116c-0.029,0.014-0.061,0.026-0.09,0.039
		c0.031-0.014,0.065-0.027,0.098-0.041c0.137-0.059,0.276-0.116,0.414-0.174c-0.106,0.043-0.212,0.088-0.318,0.133
		c3.588-1.522,7.14-3.125,10.651-4.81c11.512-5.587,22.591-12.043,33.152-19.271c0.071-0.268,0.174-0.525,0.263-0.795
		c0.922-2.76,1.744-5.551,2.572-8.341c0.737-2.485,1.485-4.967,2.177-7.466c0.402-1.453,0.8-2.907,1.185-4.364
		c0.38-1.448,0.74-2.899,1.094-4.353c0.61-2.493,1.079-5.018,1.577-7.534c0.565-2.856,1.148-5.704,1.789-8.543
		c0.335-1.477,0.657-2.956,0.971-4.437c0.273-1.283,0.475-2.579,0.701-3.872c0.109-0.868,0.217-1.738,0.327-2.605
		c0.118-0.944,0.171-1.899,0.255-2.844c0.167-1.862,0.306-3.727,0.471-5.588c0.125-1.424,0.259-2.848,0.38-4.274
		c0.059-0.671,0.094-1.344,0.141-2.017c0.017-0.253,0.032-0.507,0.045-0.762c-0.039-0.017-0.077-0.033-0.116-0.05
		c-0.826-0.365-1.601-0.857-2.366-1.332c-0.781-0.483-1.526-1.02-2.275-1.546c-1.593-1.118-3.129-2.328-4.627-3.566
		c-1.481-1.224-2.923-2.497-4.392-3.737c-0.696-0.586-1.381-1.195-2.095-1.763c-0.714-0.567-1.43-1.138-2.146-1.707
		c-1.397-1.038-2.793-2.06-4.215-3.06c-0.61-0.43-1.222-0.847-1.844-1.257c-0.765-0.504-1.52-1.03-2.299-1.512
		c-3.411-2.113-6.846-4.184-10.285-6.25c-1.73-1.04-3.478-2.044-5.226-3.054c-0.638-0.369-1.287-0.704-1.94-1.043
		c-0.863-0.449-1.716-0.932-2.595-1.35c-2.819-1.338-5.651-2.65-8.486-3.96c-0.031-0.014-0.065-0.029-0.096-0.045
		c-0.647-0.298-1.293-0.596-1.94-0.896c-1.885-0.871-3.77-1.742-5.657-2.611c-1.603-0.738-3.223-1.436-4.841-2.14
		c-0.987-0.4-1.973-0.816-2.989-1.14c-0.082-0.026-0.165-0.053-0.247-0.078c0.039,0.477,0.081,0.951,0.129,1.428
		c0.055,0.537-0.492,0.991-0.992,0.991c-0.261,0-0.516-0.106-0.7-0.29c-0.2-0.2-0.263-0.428-0.29-0.7
		c-0.043-0.418-0.084-0.836-0.122-1.253c-9.657,6.748-19.784,12.823-30.289,18.158c-8.184,4.158-16.603,7.885-25.202,11.089
		c-8.494,3.164-17.162,5.855-25.955,8.052c-7.685,1.92-15.461,3.503-23.293,4.69c0.728,0.443,1.456,0.887,2.183,1.33
		c0.029-0.004,0.059-0.006,0.088-0.006c0.116,0,0.231,0.029,0.347,0.098c0.112,0.065,0.2,0.153,0.265,0.265
		c0.018,0.031,0.033,0.065,0.047,0.096c0.592,0.361,1.183,0.72,1.775,1.083c0.918,0.563,1.848,1.124,2.638,1.866
		c0.806,0.757,0.763,2.105,0,2.868c-0.379,0.381-0.898,0.594-1.434,0.594c-0.367,0-0.708-0.092-1.024-0.277
		c-0.201-0.144-0.409-0.275-0.619-0.402c-0.115,0.781-0.236,1.562-0.373,2.34c-0.32,1.818-0.614,3.652-1.094,5.435
		c-0.471,1.752-0.938,3.509-1.477,5.241c-1.098,3.529-2.405,6.987-3.541,10.504c-1.142,3.531-2.207,7.091-3.146,10.683
		c-0.955,3.648-1.689,7.342-2.397,11.044c-0.677,3.541-1.259,7.101-2.007,10.628c-0.371,1.738-0.769,3.47-1.118,5.212
		c-0.343,1.718-0.637,3.441-0.877,5.174c-0.061,0.494-0.116,0.989-0.172,1.484c0.263,0.01,0.526,0.021,0.789,0.03
		c0.532,0.018,1.042,0.053,1.569,0.145c0.522,0.092,0.975,0.281,1.428,0.559c0.551,0.337,0.898,0.783,1.228,1.326
		c0.27,0.447,0.391,0.954,0.388,1.461c0.161,0.186,0.285,0.403,0.35,0.643c0.059,0.21,0.071,0.428,0.043,0.64
		C370.519,565.629,382.838,572.204,395.659,577.652z"/>
	<path style="fill:none;" d="M429.609,589.138c0.187,0.049,0.375,0.093,0.563,0.142c0.049-0.09,0.104-0.176,0.164-0.258
		C430.094,589.06,429.852,589.101,429.609,589.138z"/>
	<path style="fill:none;" d="M214.381,454.111c0.043,0.041,0.084,0.082,0.128,0.122c-0.043-0.041-0.084-0.08-0.126-0.122H214.381z"
		/>
	<path style="fill:none;" d="M299.415,158.235c0-0.002,0-0.002,0-0.004c-0.261,0.208-0.518,0.42-0.773,0.637
		C298.895,158.653,299.152,158.443,299.415,158.235z"/>
	<path style="fill:none;" d="M385.26,168.411c-0.371-0.1-0.743-0.204-1.112-0.308c0.367,0.104,0.738,0.208,1.108,0.31
		C385.257,168.413,385.258,168.411,385.26,168.411z"/>
	<path style="fill:none;" d="M293.263,291.686c-0.043,0.049-0.082,0.102-0.118,0.159c0.002,0,0.004,0,0.004,0
		C293.183,291.788,293.222,291.735,293.263,291.686z"/>
	<path style="fill:none;" d="M245.707,249.634c-0.312-0.404-0.63-0.816-0.949-1.232l0.033,0.047c0.02,0.027,0.041,0.053,0.061,0.08
		c-0.02-0.023-0.037-0.049-0.057-0.073C245.099,248.849,245.403,249.241,245.707,249.634z"/>
	<path style="fill:none;" d="M591.242,204.194c-1.512-1.918-3.054-3.815-4.621-5.691c1.56,1.867,3.099,3.766,4.618,5.691
		C591.24,204.194,591.24,204.194,591.242,204.194z"/>
	<path style="fill:none;" d="M571.393,208.568c0.669-0.42,1.354-0.802,2.073-1.132c-1.026-1.238-2.105-2.428-3.174-3.627
		c0.298,1.232,0.587,2.468,0.865,3.703C571.236,207.864,571.314,208.215,571.393,208.568z"/>
	<path style="fill:none;" d="M493.507,145.965c-0.082-0.063-0.165-0.124-0.247-0.186c-0.008-0.006-0.014-0.012-0.022-0.018
		c0.024,0.065,0.043,0.131,0.061,0.2C493.368,145.961,493.436,145.963,493.507,145.965z"/>
	<path style="fill:none;" d="M568.274,195.294c-0.178-0.202-0.357-0.404-0.537-0.606c0.004,0.006,0.008,0.014,0.012,0.022
		C567.925,194.904,568.099,195.098,568.274,195.294z"/>
	<path style="fill:none;" d="M237.682,238.965c-0.002,0.002-0.002,0.004-0.004,0.004c0.145,0.192,0.29,0.385,0.434,0.577
		L237.682,238.965z"/>
	<path style="fill:none;" d="M454.633,151.132c-6.091,0.824-12.152,1.867-18.164,3.144c-7.693,1.634-15.312,3.627-22.813,5.993
		c-3.751,1.185-7.476,2.454-11.163,3.819c-1.459,0.538-2.91,1.096-4.357,1.664c0.59,0.319,0.908,1.021,0.729,1.691
		c-0.386,1.45-0.787,2.895-1.136,4.353c-0.288,1.195-0.575,2.389-0.863,3.584c-0.111,0.461-0.226,0.922-0.341,1.384
		c-0.153,1.399-0.288,2.801-0.397,4.206c-0.229,2.97-0.447,5.945-0.806,8.905c-0.044,0.361-0.094,0.721-0.139,1.082
		c-0.062,1.192-0.129,2.384-0.21,3.576c-0.267,3.896-0.559,7.787-0.897,11.677c-0.322,3.688-0.675,7.373-0.963,11.063
		c-0.181,2.317-0.334,4.632-0.446,6.95c0.081,0.936,0.133,1.879,0.252,2.81c0.111,0.869,0.221,1.737,0.331,2.607
		c0.26,1.682,0.531,3.36,0.814,5.036c0.286,1.703,0.52,3.409,0.737,5.122c0.461,3.635,0.69,7.301,0.859,10.959
		c0.08,1.74,0.112,3.482,0.053,5.222c-0.027,0.795-0.057,1.589-0.074,2.383c-0.01,0.439-0.022,0.883-0.077,1.32
		c-0.092,0.745-0.139,1.579-0.522,2.248c-0.004,0.007-0.008,0.012-0.012,0.019c2.943,1.32,5.863,2.692,8.758,4.116
		c7.173,3.529,14.151,7.45,20.94,11.671c6.965,4.329,13.688,9.047,20.169,14.072c1.204,0.934,2.401,1.879,3.59,2.834
		c4.623,3.698,9.119,7.556,13.456,11.583c3.962,3.682,7.815,7.483,11.53,11.416c2.36,2.487,4.666,5.024,6.918,7.615
		c0.004,0.006,0.01,0.01,0.014,0.016c0.008-0.247,0.02-0.496,0.033-0.743c0.045-0.83,0.073-1.673,0.21-2.493
		c0.057-0.337,0.104-0.679,0.186-1.012c0.041-0.169,0.073-0.341,0.126-0.506c0.135-0.439,0.31-0.859,0.512-1.271
		c0.218-0.447,0.704-0.675,1.185-0.675c0.245,0,0.49,0.059,0.696,0.18c0.54,0.314,0.789,0.955,0.634,1.553
		c-0.057,0.22-0.106,0.439-0.143,0.663c-0.021,0.182-0.039,0.367-0.057,0.551c1.002-0.347,2.003-0.692,3.007-1.03
		c3.621-1.218,7.232-2.46,10.879-3.601c1.795-0.563,3.586-1.157,5.39-1.689c2.164-0.637,4.327-1.275,6.491-1.913
		c1.765-0.52,3.531-1.038,5.296-1.556c1.813-0.534,3.605-1.149,5.404-1.73c1.642-0.53,3.26-1.126,4.882-1.712
		c1.648-0.594,3.291-1.191,4.927-1.814c1.803-0.687,3.605-1.373,5.412-2.048c0.855-0.318,1.705-0.661,2.568-0.957
		c1.053-0.363,2.105-0.724,3.158-1.087c3.492-1.201,7.062-2.168,10.62-3.142c1.742-0.479,3.478-0.971,5.212-1.475
		c1.683-0.49,3.35-1.04,5.028-1.557c1.722-0.53,3.456-1.012,5.212-1.424c0.845-0.198,1.691-0.392,2.532-0.61
		c0.9-0.235,1.781-0.516,2.668-0.8c0.818-6.487,1.381-13.001,1.679-19.531c0.679-14.759,0.053-29.569-1.889-44.216
		c-0.008-0.061-0.016-0.12-0.023-0.18c0,0.008,0.002,0.016,0.002,0.023c0-0.008-0.002-0.016-0.002-0.023
		c-0.006-0.037-0.012-0.075-0.016-0.112c-0.781-5.74-1.754-11.45-2.925-17.122c-0.604-2.927-1.259-5.844-1.964-8.747
		c-0.337-1.389-0.685-2.776-1.046-4.16c-0.023-0.086-0.045-0.175-0.069-0.261c-0.451-0.53-0.908-1.051-1.383-1.556
		c-1.324-1.412-2.677-2.785-4.058-4.139c-2.579-2.528-5.314-4.873-8.125-7.132c-1.004-0.767-2.011-1.532-3.029-2.283
		c-2.925-2.158-5.936-4.19-8.88-6.318c-1.448-1.048-2.881-2.117-4.329-3.164c-1.677-1.212-3.366-2.403-5.065-3.584
		c-1.436-0.998-2.891-1.967-4.329-2.962c-1.463-1.012-2.909-2.05-4.372-3.062c-0.755-0.524-1.503-1.063-2.275-1.563
		c-0.839-0.545-1.665-1.124-2.524-1.638c-1.671-1-3.343-1.987-5.039-2.946c-1.455-0.824-2.931-1.62-4.364-2.481
		c-0.82-0.492-1.659-0.961-2.464-1.481c-0.928-0.6-1.858-1.201-2.786-1.801c-0.661-0.426-1.3-0.883-1.948-1.328
		c-0.714-0.492-1.446-0.963-2.142-1.477c-0.449-0.331-0.9-0.665-1.35-0.996c-0.21-0.002-0.42-0.002-0.63-0.002
		c-0.432-0.002-0.859-0.006-1.291-0.022c-0.475-0.016-0.949-0.031-1.424-0.045c-1.907-0.057-3.813-0.094-5.72-0.106
		c-3.809-0.022-7.621,0.047-11.426,0.206C469.696,149.478,462.144,150.133,454.633,151.132z"/>
	<path style="fill:none;" d="M492.628,144.882c-0.012-0.061-0.018-0.122-0.022-0.182c0.002,0.059,0.008,0.118,0.016,0.177
		C492.624,144.878,492.626,144.88,492.628,144.882z"/>
	<path style="fill:none;" d="M610.002,386.792c-0.02-0.084-0.037-0.167-0.057-0.251l0.055,0.251
		C610.002,386.792,610.002,386.792,610.002,386.792z"/>
	<path style="fill:none;" d="M573.217,304.428c0-0.002-0.002-0.004-0.002-0.008c-0.049,0.275-0.1,0.551-0.151,0.826
		C573.117,304.971,573.166,304.699,573.217,304.428z"/>
	<path style="fill:none;" d="M549.969,476.102c-0.075,0.094-0.149,0.19-0.224,0.284c0,0.002,0,0.004,0,0.006
		C549.82,476.296,549.894,476.198,549.969,476.102z"/>
	<path style="fill:none;" d="M471.069,579.466c-0.88,0.298-1.764,0.581-2.647,0.869c0.191,0.033,0.376,0.077,0.549,0.15
		c0.611-0.043,1.222-0.069,1.831-0.07c0.3-0.001,0.602,0.002,0.904,0.012c-0.094-0.387-0.093-0.803,0.005-1.184
		C471.496,579.317,471.283,579.393,471.069,579.466z"/>
	<path style="fill:none;" d="M198.147,437.643c-0.01-0.012-0.02-0.025-0.029-0.037c0.006,0.008,0.014,0.018,0.02,0.026
		C198.141,437.635,198.143,437.639,198.147,437.643z"/>
	<path style="fill:none;" d="M255.44,539.57c-0.332-0.424-0.661-0.851-0.967-1.293c-0.314-0.449-0.628-0.898-0.94-1.35
		c-0.581-0.834-1.165-1.663-1.754-2.491c-1.265-1.783-2.536-3.56-3.768-5.365c-1.54-2.25-3.015-4.541-4.408-6.885
		c-1.469-2.474-2.933-4.947-4.392-7.427c-2.764-4.69-5.594-9.337-8.448-13.972c-0.616-1.002-1.208-2.018-1.807-3.031
		c-0.588-0.991-1.193-1.973-1.742-2.986c-0.84-1.548-1.677-3.093-2.517-4.639c-0.469-0.867-0.887-1.759-1.322-2.644
		c-0.773-1.575-1.546-3.148-2.319-4.722c-0.42-0.855-0.79-1.734-1.181-2.603c-0.734-1.638-1.467-3.278-2.203-4.918
		c-0.416-0.926-0.804-1.865-1.2-2.799c-1.181-2.778-2.346-5.557-3.492-8.348c-0.447-1.089-0.885-2.177-1.308-3.278
		c-0.314-0.81-0.626-1.622-0.94-2.432c-0.192-0.5-0.365-1.008-0.535-1.516c-0.147-0.441-0.316-0.889-0.416-1.344
		c-0.096-0.428-0.163-0.859-0.239-1.291c-0.012-0.065-0.018-0.131-0.018-0.196c-0.532-0.526-1.059-1.053-1.585-1.585
		c-0.724-0.732-1.422-1.483-2.117-2.242c-0.19-0.21-0.334-0.443-0.41-0.704c-2.013-2.109-3.988-4.253-5.924-6.43
		c-2.319-2.607-4.566-5.279-6.771-7.983c-0.159-0.194-0.318-0.39-0.475-0.585c-0.261-0.318-0.522-0.636-0.781-0.953
		c-1.85-2.271-3.658-4.574-5.426-6.909c-9.871-13.056-18.358-27.115-25.457-41.858c-0.153-0.318-0.226-0.63-0.13-0.981
		c0.008-0.033,0.02-0.065,0.029-0.096c-0.267-0.565-0.533-1.13-0.796-1.697c0.137,1.167,0.285,2.334,0.438,3.499
		c1.471,10.589,3.578,21.095,6.426,31.399c2.819,10.208,6.269,20.212,10.351,29.98c4.129,9.673,8.825,19.11,14.166,28.172
		c5.23,8.886,10.991,17.432,17.258,25.62c6.456,8.307,13.403,16.242,20.869,23.656c7.05,7.005,14.488,13.588,22.305,19.719
		c0.541-0.655,1.083-1.312,1.624-1.969c0.665-0.804,1.371-1.591,2.111-2.324C255.301,539.703,255.37,539.636,255.44,539.57z"/>
	<path style="fill:none;" d="M171.066,284.308c2.377-2.617,4.81-5.18,7.305-7.685c5.053-5.077,10.343-9.922,15.804-14.557
		c5.532-4.692,11.269-9.143,17.185-13.337c2.909-2.064,5.859-4.068,8.853-6.006c1.469-0.951,2.95-1.889,4.441-2.811
		c0.785-0.484,1.571-0.967,2.362-1.444c0.722-0.436,1.469-0.826,2.215-1.22c0.226-0.12,0.471-0.178,0.712-0.178
		c0.311,0,0.608,0.108,0.854,0.3c0.236-0.12,0.472-0.24,0.71-0.358c0.436-0.217,0.873-0.434,1.309-0.651
		c-0.444-0.595-0.892-1.186-1.313-1.796c-0.349-0.508-0.096-1.253,0.406-1.548c0.173-0.1,0.377-0.153,0.583-0.153
		c0.296,0,0.592,0.108,0.788,0.329c0.551,0.618,1.04,1.295,1.546,1.95c0.043,0.057,0.075,0.12,0.1,0.19
		c0.001,0.002,0.003,0.004,0.004,0.006c0.071-0.033,0.141-0.067,0.212-0.1c0.312-0.18,0.627-0.355,0.94-0.534
		c-0.268-0.449-0.293-1.026-0.023-1.51c1.11-1.987,2.221-3.97,3.356-5.941c0.947-1.642,1.891-3.284,2.838-4.926
		c0.143-0.247,0.292-0.483,0.451-0.722c0.496-0.749,0.995-1.499,1.491-2.248c0.587-0.885,1.173-1.769,1.76-2.652
		c0.265-0.4,0.516-0.816,0.798-1.204c1.075-1.477,2.15-2.95,3.225-4.425c0.891-1.226,1.813-2.43,2.729-3.637
		c1.983-2.615,3.982-5.218,5.963-7.833c1.858-2.452,3.686-4.927,5.553-7.372c1.966-2.572,3.96-5.12,5.965-7.662
		c4.029-5.104,8.066-10.206,12.395-15.063c2.118-2.377,4.317-4.696,6.661-6.856c1.167-1.075,2.36-2.122,3.586-3.133
		c0.598-0.494,1.198-0.987,1.805-1.469c0.384-0.306,0.775-0.6,1.191-0.859c0.31-0.193,0.64-0.351,0.972-0.502
		c0.096-0.08,0.189-0.163,0.286-0.241c0.143-0.114,0.286-0.228,0.43-0.339c-0.035-0.132-0.055-0.269-0.055-0.406
		c0-0.736,0.614-1.489,1.377-1.526c-0.147-1.106-0.286-2.213-0.416-3.319c-0.286-2.45-0.549-4.904-0.763-7.362
		c-0.269-3.105-0.481-6.218-0.632-9.333c-6.397,3.013-12.668,6.295-18.768,9.871c-9.127,5.349-17.897,11.255-26.287,17.699
		c-8.331,6.493-16.289,13.478-23.719,20.983c-7.152,7.222-13.857,14.859-20.094,22.883c-6.373,8.333-12.26,17.04-17.517,26.118
		c-5.145,8.878-9.733,18.052-13.757,27.489c-4.143,9.918-7.689,20.088-10.494,30.467c0.394-0.479,0.793-0.955,1.195-1.428
		C168.718,286.913,169.885,285.605,171.066,284.308z"/>
	<path style="fill:none;" d="M377.424,573.324c-7.795-4.029-15.387-8.466-22.709-13.309c-0.541,0.067-1.083,0.12-1.626,0.163
		c-0.159,0.328-0.459,0.592-0.802,0.687c-0.32,0.088-0.669,0.043-0.955-0.125c-0.19-0.11-0.328-0.257-0.43-0.432
		c-0.3,0.012-0.6,0.024-0.902,0.031c-0.196,0.753-0.895,1.365-1.707,1.334c-2.317-0.086-4.631-0.206-6.948-0.294
		c-3.513-0.131-7.026-0.161-10.54-0.228c-3.44-0.067-6.875-0.343-10.282-0.824c-1.73-0.243-3.464-0.475-5.186-0.761
		c-0.926-0.153-1.85-0.308-2.774-0.463c-0.412-0.069-0.82-0.167-1.228-0.251c-0.404-0.082-0.814-0.151-1.216-0.249
		c-3.339-0.818-6.661-1.703-10.004-2.509c-1.685-0.406-3.378-0.787-5.065-1.181c-0.914-0.214-1.826-0.426-2.738-0.64
		c-0.634-0.147-1.271-0.284-1.899-0.459c-1.652-0.463-3.327-0.871-4.947-1.436c-1.102-0.384-2.205-0.769-3.307-1.151
		c-0.565-0.198-1.114-0.426-1.667-0.651c-1.036-0.42-2.071-0.84-3.107-1.259c-0.671-0.271-1.314-0.594-1.967-0.908
		c-0.983-0.471-1.967-0.944-2.952-1.414c-0.543-0.261-1.067-0.571-1.597-0.857c-1.416-0.765-2.858-1.492-4.228-2.337
		c-1.301-0.525-2.571-1.13-3.817-1.76c-1.054-0.532-2.071-1.194-3.025-1.893c-0.397,0.252-0.788,0.515-1.166,0.795
		c-0.781,0.64-1.483,1.367-2.156,2.119c-0.377,0.42-0.759,0.838-1.116,1.273c-0.453,0.551-0.906,1.102-1.357,1.654
		c7.629,5.757,15.571,11.104,23.827,15.928c9.186,5.369,18.692,10.153,28.476,14.325c9.91,4.141,20.077,7.682,30.449,10.477
		c10.271,2.77,20.693,4.882,31.23,6.338c10.541,1.371,21.175,2.126,31.811,2.126c0.135,0,0.273,0,0.408,0
		c10.037-0.014,20.055-0.604,30.02-1.797c-4.531-1.142-9.031-2.409-13.484-3.817C403.205,585.294,390.031,579.841,377.424,573.324z"
		/>
	<path style="fill:none;" d="M160.038,378.508c0.671,1.485,1.355,2.964,2.054,4.437c0.271,0.094,0.569,0.3,0.688,0.563
		c0.377,0.787,0.757,1.575,1.144,2.358c7.234,14.635,15.953,28.511,25.906,41.448c0,0,0-0.002,0-0.004
		c0.004,0.01,0.01,0.016,0.018,0.026c0.002,0.002,0.002,0.002,0.002,0.004c0-0.002,0-0.002,0-0.002
		c0.002,0.004,0.004,0.006,0.006,0.008c-0.002,0-0.002,0-0.002,0s0.002,0,0.002,0.002c0.002,0.002,0.002,0.004,0.006,0.006
		l0.002,0.002c0.002,0.004,0.004,0.006,0.008,0.01c0.018,0.024,0.035,0.047,0.053,0.069c-0.002-0.002-0.006-0.006-0.008-0.008
		c0.012,0.014,0.024,0.029,0.035,0.045c-0.002-0.004-0.006-0.008-0.008-0.012c1.273,1.644,2.564,3.272,3.872,4.888
		c4.339,5.257,8.901,10.324,13.658,15.204c0.229,0.075,0.447,0.202,0.632,0.381c0.479,0.465,0.953,0.933,1.429,1.4
		c0.057-0.043,0.111-0.09,0.173-0.126c0.276-0.161,0.59-0.243,0.906-0.243c0.158,0,0.317,0.021,0.471,0.063
		c0.41,0.114,0.887,0.422,1.069,0.822c0.303,0.664,0.604,1.329,0.91,1.992c0.073-0.051,0.146-0.101,0.219-0.151
		c0.122-0.084,0.243-0.171,0.365-0.255c0.047-0.286,0.206-0.563,0.467-0.679c0.492-0.288,0.995-0.561,1.499-0.83
		c0.212-0.178,0.426-0.355,0.639-0.532c0.359-0.298,0.688-0.638,1.028-0.959c0.83-0.786,1.612-1.616,2.395-2.45
		c0.228-0.241,0.541-0.359,0.859-0.359c0.324,0,0.651,0.124,0.887,0.359c0.159,0.159,0.263,0.349,0.316,0.549
		c0.883-0.494,1.767-0.989,2.654-1.477c1.414-0.779,2.832-1.553,4.251-2.326c1.385-0.757,2.754-1.542,4.125-2.32
		c1.369-0.777,2.687-1.646,4.021-2.481c0.469-0.294,0.92-0.612,1.377-0.926c0.773-0.534,1.544-1.065,2.317-1.597
		c0.606-0.418,1.191-0.871,1.783-1.308c0.522-0.383,1.044-0.765,1.565-1.148c1.269-0.928,2.528-1.873,3.819-2.772
		c1.412-0.981,2.823-1.954,4.259-2.899c1.179-0.777,2.377-1.526,3.568-2.287c0.714-0.459,1.448-0.896,2.146-1.377
		c0.696-0.475,1.391-0.951,2.085-1.428c1.11-0.763,2.173-1.595,3.242-2.419c-0.002,0.002-0.002,0.002-0.002,0.002
		c1.43-1.124,2.854-2.258,4.317-3.337c1.346-0.991,2.756-1.893,4.133-2.836c0.165-0.114,0.361-0.188,0.567-0.228
		c0.967-0.714,1.932-1.43,2.897-2.146c-0.082-0.844-0.161-1.685-0.233-2.529c-0.061-0.706-0.118-1.412-0.173-2.12
		c-0.037-0.239-0.073-0.479-0.11-0.718c-0.104-0.708-0.12-1.434-0.159-2.148c-0.077-1.353-0.139-2.709-0.2-4.064
		c-0.108-2.428-0.186-4.859-0.222-7.289c-0.316-16.556,1.02-33.141,4.019-49.427c1.542-8.38,3.511-16.685,5.92-24.857
		c1.204-4.084,2.503-8.138,3.921-12.152c0.112-0.318,0.226-0.635,0.339-0.953c-0.853-0.618-1.703-1.236-2.54-1.873
		c-2.897-2.203-5.461-4.825-7.882-7.532c-2.503-2.799-4.973-5.624-7.403-8.488c-0.504-0.594-0.987-1.208-1.477-1.816
		c-0.563-0.698-1.13-1.391-1.675-2.103c-1.169-1.534-2.338-3.068-3.478-4.625c-2.252-3.076-4.431-6.204-6.62-9.325
		c-1.044-1.489-2.109-2.962-3.168-4.439c-1.018-1.422-2.085-2.809-3.135-4.208c-2.028-2.703-4.111-5.367-6.122-8.086
		c-1.187-1.603-2.36-3.211-3.519-4.835c-0.928-1.302-1.848-2.613-2.785-3.911c-1.146-1.585-2.291-3.17-3.439-4.755
		c-0.083-0.114-0.166-0.227-0.248-0.341c-0.139,0.094-0.278,0.188-0.417,0.283c-0.908,0.618-1.813,1.24-2.719,1.86
		c-0.91,0.624-1.824,1.244-2.738,1.862c-0.492,0.333-0.998,0.645-1.497,0.967c-0.216,0.139-0.43,0.278-0.647,0.414
		c-0.343,0.21-0.685,0.426-1.042,0.614c-0.347,0.186-0.712,0.326-1.077,0.473c-0.135,0.053-0.324,0.012-0.443-0.059
		c-0.086-0.051-0.157-0.12-0.208-0.206c-0.108-0.186-0.092-0.394,0-0.581c0.074-0.147,0.148-0.283,0.261-0.403
		c-2.02,1.281-4.022,2.591-6.001,3.935c-4.123,2.795-8.152,5.72-12.099,8.758c-6.036,4.669-11.852,9.616-17.424,14.828
		c-2.579,2.415-5.096,4.904-7.568,7.43c-2.472,2.529-4.898,5.106-7.268,7.732c-1.173,1.301-2.328,2.617-3.488,3.927
		c-1.167,1.318-2.338,2.63-3.47,3.978c-0.704,0.84-1.404,1.683-2.099,2.532c-1.877,7.874-3.372,15.832-4.484,23.857
		c-1.412,10.783-2.107,21.634-2.085,32.509c0.012,5.581,0.18,11.157,0.585,16.724c0.192,2.672,0.426,5.341,0.7,8.007
		c0.008,0,0.014,0,0.022,0C159.583,378.069,159.905,378.214,160.038,378.508z"/>
	<path style="fill:none;" d="M189.883,427.382c-0.004-0.006-0.008-0.012-0.012-0.018c-0.002-0.002-0.006-0.006-0.008-0.008
		C189.869,427.365,189.875,427.374,189.883,427.382z"/>
	<path style="fill:none;" d="M634.031,289.161c-2.817-10.165-6.273-20.128-10.341-29.859c-4.035-9.464-8.605-18.703-13.79-27.593
		c-4.702-8.056-9.847-15.83-15.424-23.299c-1.148,0.104-2.295,0.188-3.441,0.261c-2.377,0.153-4.747,0.302-7.117,0.555
		c-2.891,0.41-5.804,0.846-8.535,1.907c-0.91,0.422-1.76,0.947-2.591,1.506c-0.155,0.104-0.322,0.181-0.494,0.23
		c0.524,2.607,1.004,5.222,1.436,7.846c2.427,14.759,3.531,29.735,3.264,44.69c-0.132,7.397-0.591,14.786-1.381,22.142
		c-0.22,2.049-0.468,4.095-0.738,6.139c0.048,0.02,0.098,0.034,0.143,0.06c0.3,0.175,0.447,0.426,0.569,0.737
		c0.168,0.434,0.335,0.87,0.51,1.302c0.601,1.401,1.204,2.799,1.807,4.198c0.138,0.323,0.294,0.64,0.449,0.956
		c0.457,0.594,0.906,1.194,1.358,1.791c0.908,1.202,1.775,2.434,2.65,3.664c0.84,1.183,1.614,2.413,2.413,3.627
		c0.777,1.181,1.487,2.411,2.224,3.617c0.328,0.538,0.634,1.091,0.949,1.634c0.331,0.575,0.675,1.144,0.995,1.724
		c0.69,1.251,1.391,2.497,2.048,3.766c0.085,0.165,0.172,0.329,0.258,0.493c0.662,1.135,1.301,2.286,1.947,3.431
		c0.742,1.318,1.42,2.672,2.124,4.011c0.269,0.512,0.512,1.038,0.765,1.557c0.424,0.869,0.847,1.74,1.271,2.609
		c0.675,1.381,1.299,2.787,1.946,4.18c1.244,2.68,2.444,5.387,3.586,8.109c0.626,1.489,1.252,2.976,1.848,4.476
		c0.592,1.485,1.152,2.98,1.711,4.478c0.532,1.432,1,2.889,1.465,4.343c0.424,1.324,0.804,2.666,1.144,4.011
		c0.192,0.763,0.404,1.522,0.577,2.289c0.186,0.834,0.375,1.669,0.561,2.505c0.175,0.781,0.308,1.573,0.461,2.36
		c0.145,0.749,0.271,1.504,0.406,2.256c0.52,2.907,1.01,5.82,1.65,8.703c0.18,0.812,0.37,1.622,0.562,2.43
		c0.064,0.19,0.126,0.381,0.191,0.572c0.05,0.148,0.061,0.299,0.053,0.448c0.065,0.271,0.13,0.542,0.195,0.813
		c0.177,0.74,0.365,1.479,0.53,2.222c0.288,0.012,0.575,0.026,0.863,0.043c0.006,0,0.014,0,0.02,0.002
		c0.078-0.01,0.153-0.014,0.227-0.014c0.159,0,0.318,0.018,0.471,0.053c0.598,0.033,1.197,0.065,1.795,0.094
		c1.724,0.084,3.45,0.155,5.175,0.204c3.121,0.092,6.244,0.131,9.365,0.128c0.224,0,0.449-0.002,0.675-0.002
		c0.002,0,0.004,0,0.006,0c0.588-0.002,1.177-0.006,1.765-0.014c1.089-0.014,2.175-0.043,3.262-0.031
		c0.369,0.004,0.704,0.175,0.928,0.441c0.402-0.012,0.802-0.023,1.204-0.037c0.114-0.767,0.224-1.536,0.331-2.305
		c0.73-5.537,1.306-11.1,1.665-16.677c0.182-2.854,0.331-5.71,0.418-8.57c0.08-2.662,0.19-5.326,0.177-7.987
		c-0.061-10.775-0.793-21.53-2.183-32.215C638.943,309.714,636.85,299.341,634.031,289.161z"/>
	<path style="fill:none;" d="M637.866,389.95c-1.157,0.069-2.323,0.077-3.482,0.084c-0.496,0.006-0.993,0.008-1.489,0.01
		c-0.022,0.002-0.043,0.002-0.063,0.002c-0.208,0-0.416,0-0.624,0c-3.203,0-6.406-0.071-9.608-0.214
		c-1.707-0.078-3.413-0.169-5.118-0.282c-0.039,0.275-0.13,0.535-0.273,0.781c-1.53,2.097-2.984,4.249-4.48,6.369
		c-1.801,2.548-3.635,5.067-5.506,7.562c-1.775,2.369-3.576,4.719-5.369,7.075c-1.732,2.273-3.492,4.525-5.212,6.809
		c-1.922,2.554-3.835,5.116-5.755,7.672c-3.7,4.922-7.501,9.767-11.285,14.625c0.035-0.045,0.069-0.09,0.104-0.135
		c-0.01,0.012-0.02,0.023-0.028,0.035c-0.023,0.029-0.045,0.057-0.067,0.086c0.006-0.008,0.01-0.014,0.016-0.022
		c-1.016,1.316-2.036,2.632-3.052,3.951c0.053-0.071,0.108-0.141,0.163-0.212c-0.002,0.002-0.004,0.004-0.008,0.008
		c0,0.002-0.002,0.004-0.004,0.006c-0.002,0.002-0.004,0.006-0.006,0.008c0,0,0,0,0-0.002c-0.002,0.002-0.004,0.004-0.004,0.006
		c-0.012,0.014-0.024,0.029-0.033,0.043c0.002-0.002,0.004-0.006,0.008-0.01c-0.02,0.027-0.041,0.053-0.063,0.08
		c-0.985,1.279-1.973,2.554-2.962,3.829c-0.031,0.041-0.065,0.082-0.096,0.124c0.002-0.002,0.006-0.006,0.01-0.01
		c-0.031,0.041-0.061,0.078-0.092,0.12c0-0.002,0.002-0.004,0.002-0.006c-0.002,0.004-0.006,0.008-0.008,0.012
		c0,0,0.002-0.002,0.004-0.004c-0.987,1.277-1.977,2.552-2.968,3.825c0,0,0,0,0.002,0c-0.022,0.025-0.041,0.051-0.061,0.076
		c-0.008,0.008-0.012,0.016-0.018,0.024h0.002c-0.002,0.002-0.002,0.002-0.004,0.004c-0.002,0.002-0.004,0.004-0.006,0.006
		c-0.002,0.002-0.006,0.006-0.008,0.01c-0.01,0.012-0.018,0.022-0.027,0.033c0,0.002,0,0.002,0,0.002
		c-0.002,0.002-0.002,0.002-0.002,0.002c0,0.002-0.002,0.002-0.002,0.002c-0.002,0.002-0.002,0.004-0.004,0.006
		c-0.002,0.002-0.002,0.002-0.004,0.004c-0.002,0.004-0.004,0.006-0.006,0.01c-0.002,0.002-0.002,0.002-0.002,0.004
		c-0.002,0-0.002,0.002-0.002,0.002c-0.002,0.002-0.004,0.004-0.006,0.006l-0.002,0.002c-0.002,0.002-0.002,0.002-0.002,0.002v0.002
		l-0.002,0.002c-0.004,0.004-0.006,0.01-0.01,0.014c-0.002,0.002-0.004,0.004-0.006,0.006c-0.002,0.002-0.002,0.002-0.004,0.004
		v0.002v-0.002l-0.002,0.002v0.002c0,0.002-0.002,0.004-0.004,0.006c-0.002,0-0.002,0-0.002,0.002c0,0.002-0.002,0.004-0.004,0.004
		v0.002v-0.002l-0.002,0.002c0,0.002,0,0.002,0,0.002c-0.01,0.014-0.02,0.025-0.029,0.037v0.002v-0.002
		c-0.008,0.012-0.016,0.022-0.022,0.029v-0.002c-0.002,0.002-0.002,0.004-0.004,0.006l0.002-0.002c0,0.002-0.002,0.002-0.002,0.004
		c-0.002,0.002-0.004,0.004-0.006,0.008c0-0.002,0.002-0.004,0.002-0.006c-1.036,1.344-2.071,2.683-3.107,4.025
		c0.002-0.002,0.002-0.002,0.004-0.004c-0.008,0.01-0.016,0.02-0.023,0.029l0.002-0.002l-0.002,0.002
		c-0.002,0.002-0.004,0.006-0.006,0.008c-0.026,0.033-0.051,0.067-0.076,0.1c0.008-0.012,0.016-0.022,0.024-0.033
		c-0.008,0.01-0.014,0.018-0.02,0.028c-0.025,0.031-0.049,0.063-0.072,0.094c-0.004,0.004-0.008,0.008-0.01,0.014
		c0.008-0.012,0.018-0.024,0.027-0.035c-1.648,2.14-3.266,4.302-4.888,6.459c-2.003,2.662-4.019,5.312-6.044,7.958
		c-0.945,1.234-1.952,2.424-2.93,3.631c-0.057,0.069-0.114,0.139-0.171,0.208c0.131,0.216,0.118,0.522-0.076,0.7
		c-0.506,0.457-1.018,0.912-1.514,1.379c-0.222,0.21-0.445,0.422-0.667,0.632c-0.145,0.137-0.267,0.29-0.406,0.432
		c-0.167,0.171-0.349,0.304-0.537,0.447c-0.084,0.065-0.188,0.096-0.296,0.1c-0.938,7.84-2.252,15.638-3.941,23.348
		c-0.394,1.803-0.81,3.601-1.244,5.396c-0.749,3.188-1.546,6.363-2.424,9.517c-1.142,4.102-2.387,8.174-3.75,12.209
		c-1.145,3.383-2.361,6.745-3.656,10.074c-0.165,0.632-0.328,1.266-0.498,1.897c-0.094,0.349-0.19,0.698-0.286,1.047
		c0.212-0.064,0.44-0.097,0.666-0.097c0.228,0,0.451,0.029,0.649,0.084c0.577,0.159,1.077,0.543,1.379,1.059
		c0.312,0.534,0.396,1.183,0.231,1.777c-0.029,0.108-0.065,0.208-0.106,0.302c1.122,0.302,2.246,0.594,3.376,0.861
		c0.861,0.202,1.722,0.414,2.589,0.591c0.771,0.157,1.575,0.288,2.299,0.584c1.043-0.775,2.083-1.555,3.115-2.346
		c8.256-6.41,16.144-13.307,23.523-20.716c7.228-7.256,14.011-14.937,20.318-23.015c6.508-8.46,12.53-17.299,17.897-26.532
		c5.261-9.049,9.941-18.405,14.041-28.037c4.102-9.826,7.615-19.9,10.388-30.185c2.403-8.909,4.308-17.933,5.718-27.048
		c-0.31,0.01-0.622,0.02-0.934,0.027C638.612,389.752,638.256,389.94,637.866,389.95z"/>
	<polygon style="fill:none;" points="570.373,452.365 570.375,452.361 570.369,452.369 570.371,452.367 	"/>
	<path style="fill:none;" d="M349.138,551.512c0.002,0.002,0.002,0.002,0.002,0.002c0-0.008,0-0.014,0-0.022L349.138,551.512z"/>
	<path style="fill:none;" d="M352.124,475.801l0.102,0.059c0.002,0,0.006,0,0.008,0
		C352.196,475.841,352.161,475.821,352.124,475.801z"/>
	<path style="fill:none;" d="M278.352,417.168c0.016,0.13,0.031,0.257,0.045,0.387c-0.014-0.128-0.028-0.253-0.039-0.381
		C278.355,417.172,278.353,417.17,278.352,417.168z"/>
	<path style="fill:none;" d="M278.758,353.969c-0.802,6.004-1.387,12.038-1.75,18.086c-0.41,6.893-0.543,13.803-0.386,20.706
		c0.018,0.649,0.037,1.297,0.059,1.946c0.073,2.166,0.171,4.329,0.302,6.491c0.067,1.087,0.153,2.173,0.239,3.26
		c0.02,0.249,0.039,0.5,0.061,0.749c0.02,0.251,0.02,0.496,0.02,0.747c0,0.181,0.002,0.363,0.002,0.543
		c0.102,1.322,0.214,2.644,0.335,3.966c0.016,0.161,0.029,0.32,0.045,0.481c0.116,0.112,0.218,0.239,0.3,0.381
		c0.237,0.406,0.302,0.902,0.179,1.355c-0.057,0.206-0.143,0.377-0.255,0.528c0.03,0.28,0.059,0.561,0.088,0.841
		c0.018,0.016,0.033,0.031,0.051,0.047c0.275,0.261,0.551,0.52,0.828,0.781c0.455,0.428,0.91,0.855,1.348,1.301
		c1.279,1.295,2.554,2.591,3.829,3.888c1.089,1.104,2.171,2.219,3.297,3.282c1.157,1.094,2.307,2.195,3.488,3.266
		c1.304,1.183,2.626,2.344,3.953,3.503c4.778,4.18,9.696,8.199,14.676,12.132c4.284,3.292,8.617,6.522,12.925,9.784
		c1.281,0.971,2.574,1.92,3.88,2.854c1.208,0.861,2.434,1.705,3.692,2.491c2.887,1.803,5.81,3.546,8.707,5.331
		c2.611,1.609,5.178,3.29,7.809,4.867c2.811,1.683,5.643,3.321,8.548,4.839c1.479,0.775,2.956,1.553,4.421,2.352
		c0.151,0.082,0.302,0.167,0.453,0.251c0.488-0.063,0.979-0.126,1.467-0.19c-0.094,0.014-0.188,0.026-0.283,0.039
		c0.149-0.02,0.296-0.039,0.447-0.059c-0.008,0-0.014,0-0.02,0c0.014,0,0.027-0.002,0.043-0.004
		c0.002-0.002,0.006-0.002,0.008-0.002h0.002c0.004,0,0.008-0.002,0.012-0.002c-0.002,0-0.004,0.002-0.006,0.002
		c3.409-0.465,6.81-0.993,10.196-1.599c17.895-3.199,35.349-8.521,52.095-15.575c0.475-0.2,0.947-0.404,1.422-0.608
		c8.394-3.649,16.591-7.746,24.521-12.317c0.484-0.279,0.965-0.559,1.448-0.841c3.068-1.805,6.098-3.672,9.088-5.606
		c1.489-0.965,2.968-1.946,4.435-2.944c0-0.043,0.004-0.088,0.008-0.132c0.033-0.333,0.175-0.608,0.359-0.883
		c0.343-0.518,0.951-0.957,1.575-1.053c0.388-0.059,0.781-0.086,1.175-0.086c0.536-0.377,1.069-0.753,1.601-1.134
		c0-0.114,0.002-0.226,0.006-0.337c0.023-0.677,0.049-1.353,0.071-2.03c0.02-0.541,0.106-1.089,0.159-1.626
		c0.075-0.779,0.151-1.557,0.225-2.336c0.112-1.134,0.241-2.268,0.363-3.401c0.312-2.917,0.677-5.828,1.022-8.741
		c0.333-2.797,0.663-5.594,0.993-8.392c0.312-2.629,0.577-5.261,0.828-7.895c0.251-2.646,0.492-5.298,0.82-7.937
		c0.2-1.612,0.373-3.233,0.602-4.841c0.218-1.518,0.435-3.035,0.655-4.551c0.202-1.408,0.463-2.811,0.694-4.213
		c0.233-1.406,0.512-2.805,0.769-4.208c0.51-2.774,1.075-5.539,1.61-8.307c0.263-1.369,0.479-2.748,0.712-4.121
		c0.198-1.15,0.333-2.311,0.488-3.468c0.076-0.732,0.151-1.465,0.227-2.199c0.275-2.662,0.414-5.339,0.488-8.013
		c0.077-2.734,0.116-5.471,0.126-8.205c0.01-2.242,0.01-4.482,0.012-6.724c-0.845-1.004-1.697-2.001-2.556-2.991
		c-3.305-3.811-6.72-7.523-10.245-11.128c-0.051-0.053-0.102-0.106-0.155-0.157c-0.09-0.092-0.18-0.186-0.271-0.279
		c-0.102-0.102-0.202-0.204-0.304-0.308c-0.039-0.039-0.078-0.08-0.118-0.12c-2.215-2.242-4.47-4.441-6.771-6.593
		c-4.676-4.372-9.506-8.566-14.494-12.572c-0.957-0.765-1.922-1.524-2.891-2.273c-4.141-3.191-8.378-6.259-12.705-9.19
		c-13.234-8.957-27.307-16.645-42.024-22.88c-0.514-0.216-1.03-0.426-1.545-0.638c-1.978,0.334-3.932,0.756-5.887,1.215
		c-2.454,0.579-4.89,1.191-7.309,1.901c-2.332,0.683-4.655,1.42-6.965,2.171c-1.169,0.38-2.327,0.787-3.488,1.194
		c-0.069,0.031-0.139,0.062-0.208,0.093c-2.047,0.909-4.114,1.775-6.187,2.628c-0.887,0.419-1.765,0.862-2.647,1.291
		c-1.86,0.902-3.709,1.814-5.583,2.687c-3.925,1.833-7.936,3.46-11.934,5.122c-5.31,2.338-10.533,4.865-15.82,7.26
		c-1.163,0.526-2.322,1.059-3.484,1.591c-0.147,0.067-0.292,0.141-0.438,0.21c-0.036,0.023-0.073,0.044-0.108,0.067
		c-2.976,1.918-5.906,3.902-8.843,5.879c-2.676,1.803-5.375,3.568-8.08,5.328c-0.645,0.42-1.295,0.834-1.934,1.263
		c-0.775,0.518-1.571,1.016-2.328,1.56c-0.281,0.201-0.561,0.403-0.841,0.605c-0.114,0.207-0.276,0.39-0.482,0.532
		c0.34,0.349,0.523,0.889,0.523,1.359c0,0.541-0.216,1.065-0.598,1.448c-0.394,0.394-0.914,0.59-1.44,0.59
		c-0.355,0-0.714-0.09-1.04-0.271c-0.351-0.196-0.694-0.402-1.034-0.616c-2.591,7.448-4.839,15.016-6.699,22.682
		C281.447,337.325,279.893,345.619,278.758,353.969z"/>
	<path style="fill:none;" d="M471.897,430.289l-0.367,0.265v0.002C471.653,430.468,471.775,430.378,471.897,430.289z"/>
	<path style="fill:none;" d="M473.021,434.205c-0.173-0.057-0.345-0.112-0.516-0.167c-0.002,0-0.004,0.002-0.004,0.002
		C472.673,434.095,472.848,434.15,473.021,434.205z"/>
	<path style="fill:none;" d="M483.419,335.128c0.006-0.312,0.01-0.624,0.016-0.938c-0.002,0-0.002-0.002-0.004-0.004
		C483.427,334.5,483.423,334.814,483.419,335.128z"/>
	<path style="fill:none;" d="M300.378,150.861c0.126,1.122,0.259,2.242,0.396,3.362c0.031,0.006,0.063,0.014,0.092,0.022
		c0.082,0.023,0.163,0.055,0.239,0.092c2.962,0.218,5.924,0.437,8.88,0.702c1.418,0.128,2.838,0.255,4.255,0.394
		c0.418-0.035,0.836-0.071,1.255-0.104c0.549-0.045,1.102-0.114,1.655-0.135c1.187-0.045,2.371-0.106,3.558-0.106
		c0.086,0,0.171,0,0.255,0c1.395,0.008,2.785,0.037,4.18,0.082c3.778,0.126,7.56,0.241,11.334,0.433
		c3.917,0.202,7.821,0.541,11.732,0.861c1.936,0.159,3.88,0.294,5.812,0.502c2.238,0.239,4.461,0.549,6.683,0.916
		c1.844,0.306,3.68,0.657,5.506,1.055c1.942,0.422,3.866,0.914,5.787,1.424c1.826,0.484,3.652,0.961,5.465,1.493
		c1.29,0.378,2.574,0.772,3.858,1.163c0.354,0.078,0.709,0.157,1.063,0.236c1.922,0.43,3.841,0.871,5.765,1.298
		c1.256,0.281,2.518,0.539,3.779,0.795c0.035-0.076,0.068-0.153,0.104-0.231c0.143-0.186,0.282-0.373,0.437-0.549
		c0.26-0.292,0.679-0.445,1.094-0.445c0.314,0,0.623,0.09,0.862,0.271c4.039-1.661,8.115-3.23,12.235-4.676
		c14.845-5.21,30.188-9.004,45.763-11.244c7.925-1.14,15.898-1.922,23.896-2.289c3.962-0.183,7.929-0.271,11.895-0.273
		c0.126,0,0.249,0,0.375,0c-0.828-0.912-1.595-1.883-2.285-2.901c-0.434-0.64-0.781-1.328-1.13-2.015
		c-0.379-0.749-0.716-1.54-1.018-2.322c-0.602-1.548-1.15-3.109-1.677-4.682c-0.128-0.381-0.222-0.775-0.333-1.161
		c-0.12-0.422-0.251-0.841-0.351-1.269c-0.273-1.161-0.5-2.348-0.575-3.541c-0.033-0.553-0.047-1.102,0-1.654
		c0.024-0.273,0.069-0.543,0.153-0.806c0.047-0.147,0.114-0.294,0.18-0.439c-5.535-1.971-11.144-3.745-16.813-5.294
		c-10.412-2.846-20.983-5.012-31.673-6.495c-10.898-1.43-21.873-2.168-32.864-2.148c-10.845,0.021-21.656,0.741-32.407,2.142
		c-10.555,1.456-21.03,3.541-31.31,6.348c-10.42,2.846-20.63,6.357-30.596,10.518c-2.291,0.977-4.57,1.985-6.834,3.027
		c0.137,3.431,0.341,6.858,0.622,10.279C299.88,145.957,300.103,148.411,300.378,150.861z"/>
	<path style="fill:none;" d="M545.047,478.939c-0.032,0.527-0.069,1.053-0.116,1.578c-0.087,0.999-0.178,1.998-0.269,2.996
		c0.081-0.274,0.164-0.548,0.248-0.821c0.389-1.262,0.784-2.521,1.177-3.78C545.752,478.994,545.399,479.007,545.047,478.939z"/>
	<path style="fill:none;" d="M486.959,338.649l0.004-0.004l-0.002-0.002c-0.004-0.004-0.004-0.006-0.008-0.01
		c-0.004-0.006-0.012-0.014-0.016-0.022c-0.228-0.292-0.453-0.585-0.683-0.875C486.493,338.041,486.726,338.345,486.959,338.649z"/>
	<path style="fill:none;stroke:#161616;stroke-width:0;stroke-linecap:round;stroke-linejoin:round;" d="M572.238,229.445
		c0,0.008,0.002,0.016,0.002,0.023"/>
	<polyline style="fill:none;stroke:#161616;stroke-width:0;stroke-linecap:round;stroke-linejoin:round;" points="570.373,452.365 
		570.371,452.367 570.369,452.369 	"/>
	
		<line style="fill:none;stroke:#161616;stroke-width:0;stroke-linecap:round;stroke-linejoin:round;" x1="567.148" y1="456.541" x2="567.15" y2="456.539"/>
	
		<line style="fill:none;stroke:#161616;stroke-width:0;stroke-linecap:round;stroke-linejoin:round;" x1="570.304" y1="452.453" x2="570.304" y2="452.455"/>
	
		<line style="fill:none;stroke:#161616;stroke-width:0;stroke-linecap:round;stroke-linejoin:round;" x1="570.336" y1="452.412" x2="570.336" y2="452.414"/>
	
		<line style="fill:none;stroke:#161616;stroke-width:0;stroke-linecap:round;stroke-linejoin:round;" x1="570.347" y1="452.396" x2="570.347" y2="452.398"/>
	<path style="fill:#161616;" d="M648.739,343.879c-0.147-4.058-0.416-8.113-0.763-12.16c-0.384-4.466-0.916-8.925-1.563-13.366
		c-0.861-6.047-1.938-12.066-3.217-18.035c-1.64-7.64-3.69-15.192-6.047-22.642c-2.379-7.513-5.188-14.876-8.264-22.13
		c-5.967-14.08-13.372-27.538-21.85-40.259c-2.211-3.315-4.5-6.577-6.867-9.78c-0.043-0.561-0.286-1.091-0.685-1.489
		c-0.218-0.218-0.518-0.422-0.84-0.553c-6.352-8.415-13.233-16.43-20.577-23.99c-10.696-11.012-22.487-20.945-35.01-29.818
		c-24.904-17.648-53.194-30.487-82.786-37.903c-15.1-3.784-30.591-6.046-46.122-6.96c-4.694-0.275-9.396-0.41-14.096-0.41
		c-10.957,0-21.913,0.739-32.772,2.173c-7.676,1.014-15.292,2.375-22.84,4.094c-7.519,1.71-14.943,3.821-22.264,6.24
		c-14.649,4.839-28.821,11.14-42.323,18.592c-13.782,7.607-26.754,16.63-38.86,26.679c-12.097,10.043-23.166,21.303-33.141,33.449
		c-9.824,11.96-18.517,24.822-25.981,38.376c-7.438,13.509-13.543,27.768-18.35,42.417c-2.47,7.519-4.521,15.171-6.244,22.893
		c-0.198,0.889-0.39,1.777-0.577,2.666c-0.102,0.138-0.204,0.277-0.306,0.415c-0.324,1.961-0.809,3.888-1.281,5.827
		c-0.106,0.434-0.208,0.869-0.31,1.305c0.197-0.259,0.394-0.519,0.591-0.779c-0.812,4.561-1.495,9.143-2.079,13.737
		c-0.987,7.76-1.561,15.561-1.84,23.376c-0.277,7.76-0.112,15.528,0.341,23.278c0.91,15.538,3.354,31.001,7.152,46.091
		c3.774,14.998,9.09,29.59,15.581,43.619c13.044,28.196,31.656,53.796,54.112,75.23c5.822,5.557,11.932,10.818,18.278,15.777
		c-0.077,0.104-0.153,0.208-0.228,0.314c-0.188,0.267-0.296,0.581-0.377,0.893c-0.204,0.783,0.249,1.759,1.094,1.93
		c0.194,0.037,0.388,0.076,0.587,0.069c0.69-0.031,1.301-0.449,1.489-1.134c0.006-0.026,0.012-0.053,0.018-0.078
		c4.9,3.727,9.933,7.277,15.077,10.647c6.557,4.294,13.34,8.239,20.275,11.889c6.93,3.648,14.064,6.889,21.303,9.875
		c28.568,11.785,59.392,17.846,90.265,18.335c15.755,0.249,31.513-1.098,47.034-3.78c15.341-2.652,30.4-6.848,44.955-12.36
		c14.384-5.445,28.229-12.258,41.36-20.259c13.066-7.962,25.359-17.219,36.76-27.415c22.595-20.212,41.35-44.704,55.2-71.652
		c6.991-13.599,12.654-27.886,17.032-42.533c4.504-15.059,7.423-30.559,9.011-46.189c0.787-7.74,1.171-15.53,1.142-23.309
		C648.922,351.344,648.874,347.612,648.739,343.879z M591.242,204.194c-0.002,0-0.002,0-0.004,0
		c-1.518-1.924-3.058-3.823-4.618-5.691C588.188,200.379,589.729,202.276,591.242,204.194z M573.466,207.437
		c-0.72,0.329-1.404,0.712-2.073,1.132c-0.078-0.353-0.157-0.704-0.235-1.055c-0.279-1.236-0.567-2.472-0.865-3.703
		C571.361,205.008,572.44,206.199,573.466,207.437z M568.274,195.294c-0.174-0.196-0.349-0.39-0.526-0.584
		c-0.004-0.008-0.008-0.016-0.012-0.022C567.917,194.89,568.095,195.092,568.274,195.294z M493.26,145.779
		c0.082,0.063,0.165,0.124,0.247,0.186c-0.071-0.002-0.139-0.004-0.208-0.004c-0.018-0.069-0.037-0.135-0.061-0.2
		C493.246,145.767,493.252,145.773,493.26,145.779z M492.628,144.882c-0.002-0.002-0.004-0.004-0.006-0.006
		c-0.008-0.059-0.014-0.118-0.016-0.177C492.611,144.761,492.617,144.822,492.628,144.882z M494.413,149.063
		c0.475,0.014,0.949,0.029,1.424,0.045c0.432,0.016,0.859,0.02,1.291,0.022c0.21,0,0.42,0,0.63,0.002
		c0.449,0.332,0.9,0.665,1.35,0.996c0.696,0.514,1.428,0.985,2.142,1.477c0.647,0.445,1.287,0.902,1.948,1.328
		c0.928,0.6,1.858,1.201,2.786,1.801c0.804,0.52,1.644,0.989,2.464,1.481c1.434,0.861,2.909,1.658,4.364,2.481
		c1.697,0.959,3.368,1.946,5.039,2.946c0.859,0.514,1.685,1.093,2.524,1.638c0.773,0.5,1.52,1.04,2.275,1.563
		c1.463,1.012,2.909,2.05,4.372,3.062c1.438,0.994,2.893,1.964,4.329,2.962c1.699,1.181,3.388,2.371,5.065,3.584
		c1.448,1.048,2.882,2.117,4.329,3.164c2.944,2.128,5.955,4.16,8.88,6.318c1.018,0.751,2.024,1.516,3.029,2.283
		c2.811,2.26,5.545,4.604,8.125,7.132c1.381,1.353,2.734,2.727,4.058,4.139c0.475,0.504,0.932,1.026,1.383,1.556
		c0.023,0.086,0.045,0.174,0.069,0.261c0.361,1.385,0.708,2.772,1.046,4.16c0.704,2.903,1.359,5.82,1.964,8.747
		c1.171,5.673,2.144,11.383,2.925,17.122c0.004,0.037,0.01,0.075,0.016,0.112c0.008,0.061,0.016,0.12,0.023,0.18
		c1.942,14.647,2.568,29.457,1.889,44.216c-0.298,6.53-0.861,13.044-1.679,19.531c-0.887,0.284-1.767,0.565-2.668,0.8
		c-0.842,0.218-1.687,0.412-2.532,0.61c-1.756,0.412-3.49,0.894-5.212,1.424c-1.677,0.518-3.344,1.067-5.028,1.557
		c-1.734,0.504-3.47,0.996-5.212,1.475c-3.558,0.975-7.128,1.942-10.62,3.142c-1.053,0.363-2.105,0.724-3.158,1.087
		c-0.863,0.296-1.712,0.639-2.568,0.957c-1.807,0.675-3.609,1.361-5.412,2.048c-1.636,0.624-3.28,1.22-4.927,1.814
		c-1.622,0.586-3.241,1.183-4.882,1.712c-1.799,0.581-3.592,1.197-5.404,1.73c-1.765,0.518-3.531,1.036-5.296,1.556
		c-2.164,0.638-4.327,1.275-6.491,1.913c-1.805,0.532-3.595,1.126-5.39,1.689c-3.646,1.142-7.258,2.383-10.879,3.601
		c-1.004,0.337-2.005,0.683-3.007,1.03c0.018-0.184,0.035-0.369,0.057-0.551c0.037-0.224,0.086-0.443,0.143-0.663
		c0.155-0.598-0.094-1.24-0.634-1.553c-0.206-0.122-0.451-0.18-0.696-0.18c-0.481,0-0.967,0.227-1.185,0.675
		c-0.202,0.412-0.377,0.832-0.512,1.271c-0.053,0.165-0.084,0.337-0.126,0.506c-0.082,0.333-0.129,0.675-0.186,1.012
		c-0.137,0.82-0.165,1.663-0.21,2.493c-0.014,0.247-0.026,0.496-0.033,0.743c-0.004-0.006-0.01-0.01-0.014-0.016
		c-2.252-2.591-4.559-5.128-6.918-7.615c-3.715-3.933-7.568-7.734-11.53-11.416c-4.337-4.027-8.833-7.885-13.456-11.583
		c-1.189-0.955-2.385-1.901-3.59-2.834c-6.481-5.025-13.203-9.743-20.169-14.072c-6.789-4.221-13.766-8.142-20.94-11.671
		c-2.895-1.424-5.815-2.796-8.758-4.116c0.004-0.006,0.008-0.012,0.012-0.019c0.383-0.669,0.43-1.503,0.522-2.248
		c0.055-0.437,0.067-0.881,0.077-1.32c0.018-0.794,0.047-1.589,0.074-2.383c0.059-1.74,0.027-3.482-0.053-5.222
		c-0.169-3.658-0.398-7.324-0.859-10.959c-0.218-1.712-0.451-3.419-0.737-5.122c-0.283-1.676-0.554-3.354-0.814-5.036
		c-0.111-0.869-0.22-1.737-0.331-2.607c-0.119-0.931-0.171-1.875-0.252-2.81c0.112-2.318,0.265-4.634,0.446-6.95
		c0.288-3.69,0.641-7.375,0.963-11.063c0.337-3.89,0.63-7.782,0.897-11.677c0.081-1.191,0.148-2.383,0.21-3.576
		c0.045-0.361,0.095-0.721,0.139-1.082c0.359-2.96,0.577-5.936,0.806-8.905c0.109-1.405,0.244-2.807,0.397-4.206
		c0.115-0.462,0.23-0.923,0.341-1.384c0.288-1.195,0.575-2.389,0.863-3.584c0.349-1.457,0.749-2.903,1.136-4.353
		c0.179-0.67-0.139-1.372-0.729-1.691c1.447-0.568,2.898-1.125,4.357-1.664c3.688-1.365,7.413-2.634,11.163-3.819
		c7.501-2.366,15.12-4.359,22.813-5.993c6.012-1.277,12.073-2.321,18.164-3.144c7.511-0.999,15.063-1.654,22.635-1.969
		c3.805-0.159,7.617-0.228,11.426-0.206C490.6,148.968,492.507,149.006,494.413,149.063z M610.002,386.792c0,0,0,0-0.002,0
		l-0.055-0.251C609.965,386.625,609.983,386.707,610.002,386.792z M573.217,304.428c-0.051,0.271-0.1,0.543-0.153,0.818
		c0.051-0.275,0.102-0.551,0.151-0.826C573.215,304.424,573.217,304.426,573.217,304.428z M549.969,476.102
		c-0.075,0.096-0.149,0.194-0.224,0.29c0-0.002,0-0.004,0-0.006C549.82,476.292,549.894,476.196,549.969,476.102z M429.609,589.138
		c0.242-0.037,0.484-0.079,0.727-0.117c-0.061,0.082-0.115,0.168-0.164,0.258C429.985,589.232,429.796,589.187,429.609,589.138z
		 M358.773,557.442c-0.065-0.239-0.19-0.456-0.35-0.643c0.003-0.507-0.118-1.014-0.388-1.461c-0.329-0.543-0.677-0.989-1.228-1.326
		c-0.453-0.279-0.906-0.467-1.428-0.559c-0.528-0.092-1.038-0.128-1.569-0.145c-0.263-0.009-0.526-0.019-0.789-0.03
		c0.057-0.495,0.111-0.99,0.172-1.484c0.24-1.733,0.534-3.456,0.877-5.174c0.349-1.742,0.747-3.474,1.118-5.212
		c0.747-3.527,1.33-7.087,2.007-10.628c0.708-3.701,1.442-7.395,2.397-11.044c0.94-3.592,2.005-7.152,3.146-10.683
		c1.136-3.517,2.442-6.975,3.541-10.504c0.54-1.732,1.006-3.49,1.477-5.241c0.481-1.783,0.775-3.617,1.094-5.435
		c0.136-0.778,0.257-1.559,0.373-2.34c0.21,0.127,0.418,0.258,0.619,0.402c0.316,0.184,0.657,0.277,1.024,0.277
		c0.536,0,1.055-0.214,1.434-0.594c0.763-0.763,0.806-2.111,0-2.868c-0.79-0.741-1.72-1.302-2.638-1.866
		c-0.592-0.363-1.183-0.722-1.775-1.083c-0.014-0.031-0.03-0.065-0.047-0.096c-0.065-0.112-0.153-0.2-0.265-0.265
		c-0.116-0.069-0.232-0.098-0.347-0.098c-0.029,0-0.059,0.002-0.088,0.006c-0.728-0.443-1.456-0.887-2.183-1.33
		c7.832-1.187,15.608-2.77,23.293-4.69c8.794-2.197,17.462-4.888,25.955-8.052c8.599-3.203,17.018-6.93,25.202-11.089
		c10.504-5.335,20.632-11.41,30.289-18.158c0.037,0.418,0.078,0.836,0.122,1.253c0.027,0.273,0.09,0.5,0.29,0.7
		c0.184,0.184,0.439,0.29,0.7,0.29c0.5,0,1.047-0.453,0.992-0.991c-0.049-0.477-0.09-0.951-0.129-1.428
		c0.082,0.025,0.165,0.053,0.247,0.078c1.016,0.324,2.003,0.74,2.989,1.14c1.618,0.704,3.239,1.403,4.841,2.14
		c1.887,0.869,3.772,1.74,5.657,2.611c0.647,0.3,1.293,0.598,1.94,0.896c0.031,0.016,0.065,0.031,0.096,0.045
		c2.834,1.31,5.667,2.623,8.486,3.96c0.879,0.418,1.732,0.9,2.595,1.35c0.653,0.339,1.302,0.675,1.94,1.043
		c1.748,1.01,3.495,2.015,5.226,3.054c3.439,2.066,6.873,4.137,10.285,6.25c0.779,0.483,1.534,1.008,2.299,1.512
		c0.622,0.41,1.234,0.828,1.844,1.257c1.422,1,2.819,2.022,4.215,3.06c0.716,0.569,1.432,1.14,2.146,1.707
		c0.714,0.569,1.399,1.177,2.095,1.763c1.469,1.24,2.911,2.513,4.392,3.737c1.499,1.238,3.035,2.448,4.627,3.566
		c0.749,0.526,1.495,1.063,2.275,1.546c0.765,0.475,1.54,0.967,2.366,1.332c0.039,0.017,0.077,0.033,0.116,0.05
		c-0.013,0.255-0.028,0.509-0.045,0.762c-0.047,0.673-0.082,1.346-0.141,2.017c-0.122,1.426-0.255,2.85-0.38,4.274
		c-0.165,1.862-0.304,3.727-0.471,5.588c-0.084,0.945-0.137,1.901-0.255,2.844c-0.109,0.868-0.218,1.737-0.327,2.605
		c-0.226,1.292-0.428,2.589-0.701,3.872c-0.314,1.481-0.636,2.96-0.971,4.437c-0.641,2.838-1.224,5.687-1.789,8.543
		c-0.498,2.517-0.967,5.041-1.577,7.534c-0.355,1.453-0.714,2.905-1.094,4.353c-0.385,1.457-0.783,2.911-1.185,4.364
		c-0.692,2.499-1.44,4.98-2.177,7.466c-0.828,2.789-1.65,5.581-2.572,8.341c-0.09,0.27-0.192,0.527-0.263,0.795
		c-10.561,7.229-21.64,13.685-33.152,19.271c-3.511,1.685-7.064,3.288-10.651,4.81c0.106-0.045,0.212-0.09,0.318-0.133
		c-0.137,0.059-0.276,0.116-0.414,0.174c-0.033,0.014-0.067,0.028-0.098,0.041c0.029-0.014,0.061-0.026,0.09-0.039
		c-16.187,6.793-33.125,11.822-50.365,15.116c-0.243,0.046-0.476,0.177-0.676,0.347c-0.101,0.042-0.2,0.091-0.295,0.146
		c-2.231,0.404-4.47,0.776-6.712,1.107c-0.363,0.053-0.724,0.388-0.9,0.693c-0.128,0.216-0.196,0.461-0.204,0.71
		c-10.1-2.811-20.02-6.267-29.68-10.339c-12.821-5.447-25.139-12.022-36.842-19.57C358.844,557.869,358.832,557.651,358.773,557.442
		z M214.381,454.111h0.002c0.041,0.041,0.082,0.08,0.126,0.122C214.465,454.193,214.424,454.152,214.381,454.111z M218.202,450.984
		c0.047-0.043,0.094-0.086,0.141-0.129c0.004-0.002,0.01-0.004,0.014-0.006C218.304,450.893,218.253,450.939,218.202,450.984z
		 M267.749,278.378c-0.029-0.039-0.061-0.078-0.09-0.118l-0.016-0.022C267.679,278.286,267.714,278.331,267.749,278.378z
		 M267.588,278.163l-0.025-0.035c0.033,0.043,0.067,0.084,0.098,0.128C267.637,278.223,267.612,278.194,267.588,278.163z
		 M244.791,248.449l-0.033-0.047c0.32,0.416,0.637,0.828,0.949,1.232c-0.304-0.392-0.608-0.785-0.912-1.177
		c0.02,0.024,0.037,0.049,0.057,0.073C244.832,248.502,244.811,248.476,244.791,248.449z M293.263,291.686
		c-0.041,0.049-0.08,0.102-0.114,0.159c0,0-0.002,0-0.004,0C293.181,291.788,293.22,291.735,293.263,291.686z M384.148,168.103
		c0.369,0.104,0.741,0.208,1.112,0.308c-0.002,0-0.004,0.002-0.004,0.002C384.886,168.311,384.515,168.207,384.148,168.103z
		 M299.415,158.235c-0.263,0.208-0.52,0.418-0.773,0.634c0.255-0.218,0.512-0.43,0.773-0.637
		C299.415,158.233,299.415,158.233,299.415,158.235z M256.064,207.943c0.001-0.001,0.002-0.002,0.003-0.003
		C256.065,207.941,256.064,207.942,256.064,207.943z M237.682,238.965l0.43,0.581c-0.143-0.192-0.288-0.384-0.434-0.577
		C237.68,238.969,237.68,238.967,237.682,238.965z M290.133,306.456c0.339,0.214,0.683,0.42,1.034,0.616
		c0.326,0.181,0.685,0.271,1.04,0.271c0.526,0,1.046-0.196,1.44-0.59c0.383-0.382,0.598-0.906,0.598-1.448
		c0-0.469-0.183-1.009-0.523-1.359c0.206-0.141,0.368-0.325,0.482-0.532c0.28-0.202,0.56-0.404,0.841-0.605
		c0.757-0.543,1.554-1.042,2.328-1.56c0.64-0.43,1.289-0.843,1.934-1.263c2.705-1.76,5.404-3.525,8.08-5.328
		c2.936-1.977,5.867-3.96,8.843-5.879c0.036-0.023,0.073-0.044,0.108-0.067c0.146-0.069,0.291-0.143,0.438-0.21
		c1.161-0.532,2.321-1.065,3.484-1.591c5.287-2.395,10.51-4.922,15.82-7.26c3.998-1.662,8.01-3.289,11.934-5.122
		c1.873-0.873,3.723-1.785,5.583-2.687c0.882-0.429,1.759-0.872,2.647-1.291c2.073-0.852,4.14-1.718,6.187-2.628
		c0.07-0.031,0.139-0.062,0.208-0.093c1.161-0.408,2.32-0.814,3.488-1.194c2.311-0.751,4.633-1.489,6.965-2.171
		c2.419-0.71,4.855-1.322,7.309-1.901c1.955-0.46,3.909-0.881,5.887-1.215c0.515,0.212,1.032,0.422,1.545,0.638
		c14.716,6.235,28.789,13.923,42.024,22.88c4.327,2.931,8.564,5.999,12.705,9.19c0.969,0.749,1.934,1.508,2.891,2.273
		c4.988,4.006,9.818,8.199,14.494,12.572c2.301,2.152,4.557,4.351,6.771,6.593c0.039,0.039,0.079,0.081,0.118,0.12
		c0.102,0.104,0.202,0.206,0.304,0.308c0.09,0.092,0.18,0.186,0.271,0.279c0.053,0.051,0.104,0.104,0.155,0.157
		c3.525,3.605,6.94,7.317,10.245,11.128c0.859,0.99,1.71,1.987,2.556,2.991c-0.002,2.242-0.002,4.482-0.012,6.724
		c-0.01,2.734-0.049,5.471-0.126,8.205c-0.074,2.674-0.214,5.351-0.488,8.013c-0.076,0.734-0.151,1.467-0.227,2.199
		c-0.155,1.157-0.29,2.318-0.488,3.468c-0.233,1.373-0.449,2.752-0.712,4.121c-0.536,2.768-1.1,5.534-1.61,8.307
		c-0.257,1.402-0.536,2.801-0.769,4.208c-0.231,1.402-0.492,2.805-0.694,4.213c-0.22,1.516-0.437,3.033-0.655,4.551
		c-0.23,1.608-0.402,3.229-0.602,4.841c-0.328,2.638-0.569,5.29-0.82,7.937c-0.251,2.634-0.516,5.267-0.828,7.895
		c-0.33,2.797-0.659,5.594-0.993,8.392c-0.345,2.913-0.71,5.824-1.022,8.741c-0.122,1.134-0.251,2.268-0.363,3.401
		c-0.074,0.779-0.151,1.557-0.225,2.336c-0.053,0.537-0.139,1.085-0.159,1.626c-0.022,0.677-0.047,1.353-0.071,2.03
		c-0.004,0.112-0.006,0.224-0.006,0.337c-0.532,0.38-1.065,0.757-1.601,1.134c-0.394,0-0.786,0.027-1.175,0.086
		c-0.624,0.096-1.232,0.536-1.575,1.053c-0.184,0.275-0.326,0.549-0.359,0.883c-0.004,0.043-0.008,0.088-0.008,0.132
		c-1.467,0.998-2.946,1.979-4.435,2.944c-2.989,1.934-6.02,3.801-9.088,5.606c-0.483,0.283-0.963,0.563-1.448,0.841
		c-7.931,4.57-16.128,8.668-24.521,12.317c-0.475,0.204-0.947,0.408-1.422,0.608c-16.746,7.054-34.2,12.376-52.095,15.575
		c-3.386,0.606-6.787,1.134-10.196,1.599c0.002,0,0.004-0.002,0.006-0.002c-0.004,0-0.008,0.002-0.012,0.002h-0.002
		c-0.002,0-0.006,0-0.008,0.002c-0.016,0.002-0.029,0.004-0.043,0.004c0.006,0,0.012,0,0.02,0c-0.151,0.02-0.298,0.039-0.447,0.059
		c0.094-0.014,0.188-0.026,0.283-0.039c-0.488,0.065-0.979,0.128-1.467,0.19c-0.151-0.084-0.302-0.169-0.453-0.251
		c-1.465-0.798-2.942-1.577-4.421-2.352c-2.905-1.518-5.738-3.156-8.548-4.839c-2.63-1.577-5.198-3.258-7.809-4.867
		c-2.897-1.785-5.82-3.529-8.707-5.331c-1.257-0.787-2.483-1.63-3.692-2.491c-1.306-0.934-2.599-1.883-3.88-2.854
		c-4.307-3.262-8.641-6.493-12.925-9.784c-4.98-3.933-9.898-7.952-14.676-12.132c-1.326-1.159-2.648-2.32-3.953-3.503
		c-1.181-1.071-2.33-2.172-3.488-3.266c-1.126-1.063-2.209-2.177-3.297-3.282c-1.275-1.297-2.55-2.593-3.829-3.888
		c-0.437-0.445-0.892-0.873-1.348-1.301c-0.277-0.261-0.553-0.52-0.828-0.781c-0.018-0.016-0.033-0.031-0.051-0.047
		c-0.029-0.28-0.059-0.561-0.088-0.841c0.112-0.151,0.198-0.322,0.255-0.528c0.123-0.453,0.059-0.949-0.179-1.355
		c-0.082-0.141-0.184-0.269-0.3-0.381c-0.016-0.161-0.029-0.32-0.045-0.481c-0.122-1.322-0.233-2.644-0.335-3.966
		c0-0.18-0.002-0.363-0.002-0.543c0-0.251,0-0.496-0.02-0.747c-0.022-0.249-0.041-0.5-0.061-0.749
		c-0.086-1.087-0.173-2.173-0.239-3.26c-0.131-2.162-0.229-4.325-0.302-6.491c-0.022-0.649-0.041-1.297-0.059-1.946
		c-0.157-6.903-0.024-13.813,0.386-20.706c0.363-6.048,0.947-12.081,1.75-18.086c1.136-8.35,2.689-16.644,4.676-24.831
		C285.293,321.472,287.541,313.904,290.133,306.456z M473.021,434.205c-0.173-0.055-0.347-0.11-0.52-0.165
		c0,0,0.002-0.002,0.004-0.002C472.675,434.093,472.848,434.148,473.021,434.205z M471.897,430.289
		c-0.122,0.088-0.243,0.178-0.367,0.267v-0.002L471.897,430.289z M278.352,417.168c0.002,0.002,0.004,0.004,0.006,0.006
		c0.012,0.128,0.025,0.253,0.039,0.381C278.383,417.425,278.367,417.298,278.352,417.168z M349.138,551.512l0.002-0.02
		c0,0.008,0,0.014,0,0.022C349.14,551.514,349.14,551.514,349.138,551.512z M352.124,475.801c0.037,0.02,0.073,0.039,0.11,0.059
		c-0.002,0-0.006,0-0.008,0L352.124,475.801z M483.419,335.128c0.004-0.314,0.008-0.628,0.012-0.942
		c0.002,0.002,0.002,0.004,0.004,0.004C483.429,334.504,483.425,334.816,483.419,335.128z M486.938,338.612
		c0.004,0.008,0.012,0.016,0.016,0.022c0.004,0.004,0.004,0.006,0.008,0.01l0.002,0.002l-0.004,0.004
		c-0.233-0.304-0.467-0.608-0.704-0.912C486.485,338.027,486.71,338.32,486.938,338.612z M471.706,580.428
		c-0.302-0.01-0.604-0.013-0.904-0.012c-0.609,0.001-1.221,0.027-1.831,0.07c-0.173-0.072-0.358-0.116-0.549-0.15
		c0.883-0.288,1.767-0.571,2.647-0.869c0.214-0.073,0.428-0.149,0.642-0.222C471.613,579.625,471.612,580.041,471.706,580.428z
		 M544.91,482.692c-0.084,0.273-0.167,0.547-0.248,0.821c0.091-0.999,0.182-1.997,0.269-2.996c0.046-0.525,0.084-1.051,0.116-1.578
		c0.352,0.068,0.705,0.054,1.04-0.027C545.694,480.172,545.299,481.43,544.91,482.692z M305.89,130.194
		c9.967-4.161,20.177-7.672,30.596-10.518c10.28-2.807,20.755-4.892,31.31-6.348c10.751-1.401,21.561-2.12,32.407-2.142
		c10.991-0.02,21.966,0.718,32.864,2.148c10.69,1.483,21.261,3.648,31.673,6.495c5.669,1.55,11.277,3.323,16.813,5.294
		c-0.067,0.145-0.133,0.292-0.18,0.439c-0.084,0.263-0.129,0.534-0.153,0.806c-0.047,0.551-0.033,1.101,0,1.654
		c0.075,1.193,0.302,2.379,0.575,3.541c0.1,0.428,0.231,0.847,0.351,1.269c0.112,0.386,0.206,0.781,0.333,1.161
		c0.528,1.573,1.075,3.135,1.677,4.682c0.302,0.783,0.639,1.573,1.018,2.322c0.349,0.687,0.696,1.375,1.13,2.015
		c0.69,1.018,1.457,1.989,2.285,2.901c-0.125,0-0.249,0-0.375,0c-3.966,0.002-7.932,0.09-11.895,0.273
		c-7.997,0.367-15.971,1.149-23.896,2.289c-15.575,2.24-30.918,6.034-45.763,11.244c-4.12,1.446-8.197,3.015-12.235,4.676
		c-0.24-0.181-0.549-0.271-0.862-0.271c-0.415,0-0.834,0.153-1.094,0.445c-0.155,0.177-0.294,0.363-0.437,0.549
		c-0.035,0.078-0.069,0.155-0.104,0.231c-1.261-0.257-2.523-0.515-3.779-0.795c-1.924-0.428-3.843-0.869-5.765-1.298
		c-0.354-0.079-0.709-0.158-1.063-0.236c-1.285-0.392-2.568-0.785-3.858-1.163c-1.813-0.532-3.639-1.008-5.465-1.493
		c-1.92-0.51-3.845-1.002-5.787-1.424c-1.826-0.398-3.662-0.749-5.506-1.055c-2.223-0.367-4.445-0.677-6.683-0.916
		c-1.932-0.208-3.876-0.343-5.812-0.502c-3.911-0.32-7.815-0.659-11.732-0.861c-3.774-0.192-7.556-0.308-11.334-0.433
		c-1.395-0.045-2.785-0.075-4.18-0.082c-0.084,0-0.169,0-0.255,0c-1.187,0-2.371,0.061-3.558,0.106
		c-0.553,0.021-1.106,0.09-1.655,0.135c-0.42,0.033-0.838,0.069-1.255,0.104c-1.416-0.139-2.837-0.267-4.255-0.394
		c-2.956-0.265-5.918-0.484-8.88-0.702c-0.077-0.037-0.157-0.069-0.239-0.092c-0.029-0.008-0.061-0.016-0.092-0.022
		c-0.137-1.12-0.271-2.24-0.396-3.362c-0.275-2.45-0.498-4.904-0.7-7.362c-0.28-3.421-0.484-6.848-0.622-10.279
		C301.319,132.179,303.599,131.171,305.89,130.194z M176.882,259.21c4.023-9.437,8.611-18.611,13.757-27.489
		c5.257-9.078,11.144-17.786,17.517-26.118c6.238-8.025,12.942-15.661,20.094-22.883c7.43-7.505,15.388-14.49,23.719-20.983
		c8.39-6.444,17.16-12.35,26.287-17.699c6.101-3.576,12.372-6.858,18.768-9.871c0.151,3.115,0.363,6.228,0.632,9.333
		c0.214,2.458,0.477,4.912,0.763,7.362c0.13,1.106,0.269,2.213,0.416,3.319c-0.763,0.037-1.377,0.79-1.377,1.526
		c0,0.137,0.02,0.275,0.055,0.406c-0.143,0.112-0.286,0.226-0.43,0.339c-0.097,0.078-0.19,0.161-0.286,0.241
		c-0.333,0.151-0.662,0.309-0.972,0.502c-0.416,0.259-0.806,0.553-1.191,0.859c-0.606,0.482-1.206,0.975-1.805,1.469
		c-1.226,1.01-2.419,2.058-3.586,3.133c-2.344,2.16-4.543,4.478-6.661,6.856c-4.329,4.857-8.366,9.959-12.395,15.063
		c-2.005,2.542-4,5.09-5.965,7.662c-1.867,2.444-3.695,4.92-5.553,7.372c-1.981,2.615-3.98,5.218-5.963,7.833
		c-0.916,1.206-1.838,2.411-2.729,3.637c-1.075,1.475-2.15,2.948-3.225,4.425c-0.283,0.388-0.534,0.804-0.798,1.204
		c-0.587,0.883-1.173,1.767-1.76,2.652c-0.496,0.749-0.994,1.499-1.491,2.248c-0.159,0.239-0.308,0.475-0.451,0.722
		c-0.948,1.642-1.891,3.284-2.838,4.926c-1.136,1.971-2.246,3.954-3.356,5.941c-0.27,0.484-0.245,1.061,0.023,1.51
		c-0.313,0.179-0.628,0.354-0.94,0.534c-0.071,0.033-0.141,0.067-0.212,0.1c-0.001-0.002-0.003-0.004-0.004-0.006
		c-0.025-0.071-0.057-0.133-0.1-0.19c-0.506-0.655-0.994-1.332-1.546-1.95c-0.196-0.222-0.492-0.329-0.788-0.329
		c-0.206,0-0.41,0.053-0.583,0.153c-0.502,0.294-0.755,1.04-0.406,1.548c0.421,0.61,0.869,1.201,1.313,1.796
		c-0.436,0.217-0.873,0.435-1.309,0.651c-0.237,0.118-0.473,0.238-0.71,0.358c-0.246-0.192-0.543-0.3-0.854-0.3
		c-0.241,0-0.486,0.059-0.712,0.178c-0.745,0.394-1.493,0.785-2.215,1.22c-0.79,0.477-1.577,0.959-2.362,1.444
		c-1.491,0.922-2.972,1.859-4.441,2.811c-2.993,1.938-5.944,3.943-8.853,6.006c-5.916,4.194-11.654,8.645-17.185,13.337
		c-5.461,4.635-10.751,9.48-15.804,14.557c-2.495,2.505-4.927,5.069-7.305,7.685c-1.181,1.297-2.348,2.605-3.484,3.941
		c-0.402,0.473-0.8,0.949-1.195,1.428C169.193,279.298,172.739,269.128,176.882,259.21z M159.247,378.069
		c-0.275-2.666-0.508-5.336-0.7-8.007c-0.404-5.567-0.573-11.144-0.585-16.724c-0.022-10.875,0.673-21.726,2.085-32.509
		c1.112-8.025,2.607-15.983,4.484-23.857c0.694-0.849,1.395-1.693,2.099-2.532c1.132-1.348,2.303-2.66,3.47-3.978
		c1.159-1.31,2.315-2.627,3.488-3.927c2.369-2.626,4.796-5.204,7.268-7.732c2.471-2.526,4.988-5.016,7.568-7.43
		c5.573-5.212,11.389-10.159,17.424-14.828c3.947-3.038,7.976-5.963,12.099-8.758c1.979-1.344,3.981-2.654,6.001-3.935
		c-0.114,0.12-0.188,0.256-0.261,0.403c-0.092,0.186-0.108,0.394,0,0.581c0.051,0.086,0.122,0.155,0.208,0.206
		c0.12,0.071,0.308,0.112,0.443,0.059c0.365-0.147,0.73-0.286,1.077-0.473c0.357-0.188,0.698-0.404,1.042-0.614
		c0.218-0.135,0.432-0.275,0.647-0.414c0.498-0.322,1.004-0.634,1.497-0.967c0.914-0.618,1.828-1.238,2.738-1.862
		c0.906-0.62,1.811-1.242,2.719-1.86c0.139-0.095,0.278-0.189,0.417-0.283c0.083,0.114,0.166,0.227,0.248,0.341
		c1.148,1.585,2.293,3.17,3.439,4.755c0.938,1.299,1.858,2.609,2.785,3.911c1.159,1.624,2.332,3.233,3.519,4.835
		c2.011,2.719,4.094,5.383,6.122,8.086c1.049,1.399,2.117,2.785,3.135,4.208c1.059,1.477,2.124,2.95,3.168,4.439
		c2.189,3.121,4.368,6.249,6.62,9.325c1.14,1.557,2.309,3.091,3.478,4.625c0.545,0.712,1.112,1.405,1.675,2.103
		c0.49,0.608,0.973,1.222,1.477,1.816c2.43,2.864,4.9,5.689,7.403,8.488c2.421,2.707,4.984,5.33,7.882,7.532
		c0.838,0.637,1.687,1.255,2.54,1.873c-0.114,0.318-0.228,0.636-0.339,0.953c-1.418,4.013-2.717,8.068-3.921,12.152
		c-2.409,8.172-4.378,16.477-5.92,24.857c-2.999,16.287-4.335,32.872-4.019,49.427c0.035,2.43,0.114,4.861,0.222,7.289
		c0.061,1.355,0.124,2.711,0.2,4.064c0.039,0.714,0.055,1.44,0.159,2.148c0.037,0.239,0.072,0.479,0.11,0.718
		c0.055,0.708,0.112,1.414,0.173,2.12c0.073,0.844,0.151,1.685,0.233,2.529c-0.965,0.716-1.93,1.432-2.897,2.146
		c-0.206,0.039-0.402,0.114-0.567,0.228c-1.377,0.944-2.787,1.846-4.133,2.836c-1.463,1.079-2.887,2.213-4.317,3.337
		c0,0,0,0,0.002-0.002c-1.069,0.824-2.132,1.656-3.242,2.419c-0.694,0.477-1.389,0.953-2.085,1.428
		c-0.698,0.481-1.432,0.918-2.146,1.377c-1.191,0.761-2.389,1.51-3.568,2.287c-1.436,0.945-2.846,1.918-4.259,2.899
		c-1.291,0.898-2.55,1.844-3.819,2.772c-0.522,0.383-1.044,0.765-1.565,1.148c-0.592,0.437-1.177,0.891-1.783,1.308
		c-0.773,0.532-1.544,1.063-2.317,1.597c-0.457,0.314-0.908,0.632-1.377,0.926c-1.334,0.836-2.652,1.705-4.021,2.481
		c-1.371,0.779-2.74,1.563-4.125,2.32c-1.418,0.773-2.836,1.548-4.251,2.326c-0.887,0.488-1.771,0.983-2.654,1.477
		c-0.053-0.2-0.157-0.39-0.316-0.549c-0.235-0.235-0.563-0.359-0.887-0.359c-0.318,0-0.632,0.118-0.859,0.359
		c-0.783,0.834-1.565,1.663-2.395,2.45c-0.339,0.322-0.669,0.661-1.028,0.959c-0.214,0.177-0.428,0.353-0.639,0.532
		c-0.504,0.269-1.006,0.541-1.499,0.83c-0.261,0.116-0.42,0.392-0.467,0.679c-0.122,0.084-0.243,0.171-0.365,0.255
		c-0.072,0.05-0.146,0.101-0.219,0.151c-0.305-0.663-0.606-1.328-0.91-1.992c-0.182-0.4-0.659-0.708-1.069-0.822
		c-0.154-0.042-0.313-0.063-0.471-0.063c-0.316,0-0.631,0.082-0.906,0.243c-0.062,0.036-0.117,0.083-0.173,0.126
		c-0.476-0.467-0.949-0.935-1.429-1.4c-0.184-0.178-0.402-0.306-0.632-0.381c-4.757-4.88-9.319-9.947-13.658-15.204
		c-1.308-1.616-2.599-3.244-3.872-4.888c0.002,0.004,0.006,0.008,0.008,0.012c-0.012-0.016-0.023-0.031-0.035-0.045
		c0.002,0.002,0.006,0.006,0.008,0.008c-0.018-0.022-0.035-0.045-0.053-0.069c0.004,0.006,0.008,0.012,0.012,0.018
		c-0.008-0.008-0.014-0.018-0.02-0.025c0.002,0.002,0.006,0.006,0.008,0.008c-0.004-0.004-0.006-0.006-0.008-0.01l-0.002-0.002
		c-0.004-0.002-0.004-0.004-0.006-0.006c0-0.002-0.002-0.002-0.002-0.002s0,0,0.002,0c-0.002-0.002-0.004-0.004-0.006-0.008
		c0,0,0,0,0,0.002c0-0.002,0-0.002-0.002-0.004c-0.008-0.01-0.014-0.016-0.018-0.026c0,0.002,0,0.004,0,0.004
		c-9.953-12.936-18.672-26.813-25.906-41.448c-0.386-0.783-0.767-1.571-1.144-2.358c-0.12-0.263-0.418-0.469-0.688-0.563
		c-0.698-1.473-1.383-2.952-2.054-4.437c-0.133-0.294-0.455-0.439-0.769-0.439C159.261,378.069,159.255,378.069,159.247,378.069z
		 M198.147,437.643c-0.004-0.004-0.006-0.008-0.01-0.012c-0.006-0.008-0.014-0.018-0.02-0.026
		C198.128,437.618,198.137,437.631,198.147,437.643z M251.498,544.066c-7.817-6.132-15.255-12.715-22.305-19.719
		c-7.466-7.415-14.413-15.349-20.869-23.656c-6.267-8.188-12.028-16.734-17.258-25.62c-5.341-9.062-10.037-18.499-14.166-28.172
		c-4.082-9.768-7.532-19.772-10.351-29.98c-2.848-10.304-4.955-20.81-6.426-31.399c-0.153-1.165-0.3-2.332-0.438-3.499
		c0.263,0.567,0.53,1.132,0.796,1.697c-0.01,0.031-0.021,0.063-0.029,0.096c-0.096,0.351-0.023,0.663,0.13,0.981
		c7.099,14.743,15.587,28.802,25.457,41.858c1.767,2.334,3.576,4.637,5.426,6.909c0.259,0.318,0.52,0.636,0.781,0.953
		c0.157,0.194,0.316,0.39,0.475,0.585c2.205,2.705,4.453,5.377,6.771,7.983c1.936,2.177,3.911,4.321,5.924,6.43
		c0.076,0.261,0.22,0.494,0.41,0.704c0.694,0.759,1.393,1.51,2.117,2.242c0.526,0.532,1.053,1.059,1.585,1.585
		c0,0.065,0.006,0.132,0.018,0.196c0.076,0.431,0.143,0.863,0.239,1.291c0.1,0.455,0.269,0.902,0.416,1.344
		c0.171,0.508,0.343,1.016,0.535,1.516c0.314,0.81,0.626,1.622,0.94,2.432c0.424,1.1,0.861,2.189,1.308,3.278
		c1.146,2.791,2.311,5.571,3.492,8.348c0.396,0.934,0.785,1.873,1.2,2.799c0.736,1.64,1.469,3.28,2.203,4.918
		c0.39,0.869,0.761,1.748,1.181,2.603c0.773,1.573,1.546,3.146,2.319,4.722c0.436,0.885,0.853,1.777,1.322,2.644
		c0.839,1.546,1.677,3.091,2.517,4.639c0.549,1.012,1.153,1.995,1.742,2.986c0.598,1.012,1.191,2.028,1.807,3.031
		c2.854,4.635,5.685,9.282,8.448,13.972c1.459,2.479,2.923,4.953,4.392,7.427c1.393,2.344,2.868,4.635,4.408,6.885
		c1.232,1.805,2.503,3.582,3.768,5.365c0.588,0.828,1.173,1.657,1.754,2.491c0.312,0.451,0.626,0.9,0.94,1.35
		c0.306,0.441,0.635,0.869,0.967,1.293c-0.071,0.067-0.139,0.133-0.208,0.202c-0.74,0.734-1.446,1.52-2.111,2.324
		C252.58,542.753,252.039,543.411,251.498,544.066z M400.204,595.182c-0.135,0-0.273,0-0.408,0c-10.636,0-21.269-0.755-31.811-2.126
		c-10.538-1.456-20.959-3.568-31.23-6.338c-10.373-2.795-20.539-6.336-30.449-10.477c-9.784-4.172-19.29-8.956-28.476-14.325
		c-8.256-4.823-16.199-10.171-23.827-15.928c0.451-0.551,0.904-1.102,1.357-1.654c0.357-0.435,0.739-0.853,1.116-1.273
		c0.673-0.751,1.375-1.479,2.156-2.119c0.378-0.28,0.769-0.543,1.166-0.795c0.954,0.699,1.971,1.361,3.025,1.893
		c1.246,0.63,2.517,1.235,3.817,1.76c1.37,0.845,2.812,1.572,4.228,2.337c0.53,0.286,1.053,0.596,1.597,0.857
		c0.985,0.471,1.969,0.943,2.952,1.414c0.653,0.314,1.297,0.637,1.967,0.908c1.036,0.42,2.071,0.84,3.107,1.259
		c0.553,0.226,1.102,0.453,1.667,0.651c1.102,0.383,2.205,0.767,3.307,1.151c1.62,0.565,3.296,0.973,4.947,1.436
		c0.628,0.175,1.265,0.312,1.899,0.459c0.912,0.214,1.824,0.426,2.738,0.64c1.687,0.394,3.38,0.775,5.065,1.181
		c3.342,0.806,6.665,1.691,10.004,2.509c0.402,0.098,0.812,0.167,1.216,0.249c0.408,0.084,0.816,0.182,1.228,0.251
		c0.924,0.155,1.848,0.31,2.774,0.463c1.722,0.286,3.456,0.518,5.186,0.761c3.407,0.481,6.842,0.757,10.282,0.824
		c3.513,0.067,7.026,0.096,10.54,0.228c2.317,0.088,4.631,0.208,6.948,0.294c0.812,0.031,1.51-0.581,1.707-1.334
		c0.302-0.008,0.602-0.02,0.902-0.031c0.102,0.175,0.239,0.322,0.43,0.432c0.286,0.169,0.635,0.214,0.955,0.125
		c0.343-0.094,0.643-0.359,0.802-0.687c0.543-0.043,1.085-0.096,1.626-0.163c7.323,4.843,14.914,9.28,22.709,13.309
		c12.607,6.516,25.781,11.969,39.315,16.244c4.453,1.408,8.953,2.676,13.484,3.817C420.259,594.578,410.241,595.168,400.204,595.182
		z M512.813,568.399c0.065-0.028,0.131-0.055,0.196-0.083C512.944,568.344,512.878,568.371,512.813,568.399z M634.051,416.482
		c-2.774,10.284-6.287,20.359-10.388,30.185c-4.1,9.631-8.78,18.988-14.041,28.037c-5.367,9.233-11.389,18.072-17.897,26.532
		c-6.306,8.078-13.089,15.759-20.318,23.015c-7.379,7.409-15.267,14.306-23.523,20.716c-1.032,0.79-2.071,1.571-3.115,2.346
		c-0.724-0.296-1.528-0.428-2.299-0.584c-0.867-0.177-1.728-0.388-2.589-0.591c-1.13-0.267-2.254-0.559-3.376-0.861
		c0.041-0.094,0.076-0.194,0.106-0.302c0.165-0.594,0.08-1.244-0.231-1.777c-0.302-0.516-0.802-0.9-1.379-1.059
		c-0.198-0.055-0.422-0.084-0.649-0.084c-0.226,0-0.454,0.033-0.666,0.097c0.095-0.349,0.191-0.698,0.286-1.047
		c0.17-0.631,0.333-1.264,0.498-1.897c1.295-3.33,2.511-6.691,3.656-10.074c1.363-4.035,2.609-8.107,3.75-12.209
		c0.879-3.154,1.675-6.33,2.424-9.517c0.433-1.795,0.849-3.594,1.244-5.396c1.689-7.711,3.003-15.508,3.941-23.348
		c0.108-0.004,0.212-0.035,0.296-0.1c0.188-0.143,0.371-0.277,0.537-0.447c0.139-0.141,0.261-0.294,0.406-0.432
		c0.222-0.21,0.445-0.422,0.667-0.632c0.496-0.467,1.008-0.922,1.514-1.379c0.194-0.178,0.208-0.484,0.076-0.7
		c0.057-0.069,0.114-0.139,0.171-0.208c0.979-1.206,1.985-2.397,2.93-3.631c2.024-2.646,4.041-5.296,6.044-7.958
		c1.622-2.158,3.24-4.319,4.888-6.459c-0.01,0.012-0.02,0.023-0.027,0.035c0.002-0.006,0.006-0.01,0.01-0.014
		c0.023-0.031,0.047-0.063,0.072-0.094c0.006-0.01,0.012-0.018,0.02-0.028c-0.008,0.012-0.016,0.022-0.024,0.033
		c0.025-0.033,0.051-0.067,0.076-0.1c0.002-0.002,0.004-0.006,0.006-0.008c0.008-0.01,0.016-0.02,0.023-0.029
		c-0.002,0.002-0.002,0.002-0.004,0.004c1.036-1.342,2.071-2.682,3.107-4.025c0,0.002-0.002,0.004-0.002,0.006
		c0.002-0.004,0.004-0.006,0.006-0.008c0-0.002,0.002-0.002,0.002-0.004l-0.002,0.002c0.002-0.002,0.002-0.004,0.004-0.006v0.002
		c0.006-0.008,0.014-0.018,0.022-0.029c0.01-0.012,0.02-0.024,0.029-0.037c0,0,0,0,0-0.002l0.002-0.002
		c0.002,0,0.004-0.002,0.004-0.004c0-0.002,0-0.002,0.002-0.002c0.002-0.002,0.004-0.004,0.004-0.006v-0.002l0.002-0.002
		c0.002-0.002,0.002-0.002,0.004-0.004c0.002-0.002,0.004-0.004,0.006-0.006c0.004-0.004,0.006-0.01,0.01-0.014l0.002-0.002v-0.002
		c0.002-0.002,0.004-0.006,0.006-0.008c0,0.002-0.002,0.002-0.002,0.004c0.002-0.002,0.004-0.003,0.006-0.006
		c0,0,0-0.002,0.002-0.002c0-0.002,0-0.002,0.002-0.004c0.002-0.004,0.004-0.006,0.006-0.01c0.002-0.002,0.002-0.002,0.004-0.004
		c0.002-0.002,0.002-0.004,0.004-0.006c0,0,0.002,0,0.002-0.002c0,0,0,0,0.002-0.002c0,0,0,0,0-0.002
		c0.01-0.012,0.018-0.021,0.027-0.033c0.002-0.004,0.006-0.008,0.008-0.01c0.002-0.002,0.004-0.004,0.006-0.006
		c0.002-0.002,0.002-0.002,0.004-0.004h-0.002c0.006-0.008,0.01-0.016,0.018-0.024c0.02-0.025,0.039-0.051,0.061-0.076
		c-0.002,0-0.002,0-0.002,0c0.991-1.273,1.981-2.548,2.968-3.825c-0.002,0.002-0.004,0.004-0.004,0.004
		c0.002-0.004,0.006-0.008,0.008-0.012c0,0.002-0.002,0.004-0.002,0.006c0.031-0.041,0.061-0.078,0.092-0.12
		c-0.004,0.004-0.008,0.008-0.01,0.01c0.031-0.041,0.065-0.082,0.096-0.124c0.989-1.275,1.977-2.55,2.962-3.829
		c0.022-0.027,0.043-0.053,0.063-0.08c-0.004,0.004-0.006,0.008-0.008,0.01c0.01-0.014,0.022-0.029,0.033-0.043
		c0-0.002,0.002-0.004,0.004-0.006c0,0.002,0,0.002,0,0.002c0.002-0.002,0.004-0.006,0.006-0.008
		c0.002-0.002,0.004-0.004,0.004-0.006c0.004-0.004,0.006-0.006,0.008-0.008c-0.055,0.071-0.11,0.141-0.163,0.212
		c1.016-1.318,2.036-2.634,3.052-3.951c-0.006,0.008-0.01,0.014-0.016,0.022c0.022-0.029,0.043-0.057,0.067-0.086
		c0.008-0.012,0.018-0.023,0.028-0.035c-0.035,0.045-0.069,0.09-0.104,0.135c3.784-4.859,7.585-9.704,11.285-14.625
		c1.92-2.556,3.833-5.118,5.755-7.672c1.72-2.283,3.48-4.535,5.212-6.809c1.793-2.356,3.594-4.706,5.369-7.075
		c1.871-2.495,3.705-5.014,5.506-7.562c1.497-2.12,2.95-4.272,4.48-6.369c0.143-0.245,0.234-0.506,0.273-0.781
		c1.705,0.114,3.411,0.204,5.118,0.282c3.201,0.143,6.405,0.214,9.608,0.214c0.208,0,0.416,0,0.624,0c0.02,0,0.041,0,0.063-0.002
		c0.496-0.002,0.992-0.004,1.489-0.01c1.159-0.008,2.324-0.016,3.482-0.084c0.39-0.01,0.745-0.198,0.969-0.488
		c0.312-0.008,0.624-0.018,0.934-0.027C638.358,398.549,636.454,407.573,634.051,416.482z M642.413,360.375
		c-0.086,2.86-0.235,5.716-0.418,8.57c-0.359,5.577-0.936,11.14-1.665,16.677c-0.108,0.769-0.218,1.538-0.331,2.305
		c-0.402,0.014-0.802,0.026-1.204,0.037c-0.224-0.267-0.559-0.437-0.928-0.441c-1.087-0.012-2.173,0.018-3.262,0.031
		c-0.589,0.008-1.177,0.012-1.765,0.014c-0.002,0-0.004,0-0.006,0c-0.226,0-0.451,0.002-0.675,0.002
		c-3.121,0.004-6.244-0.035-9.365-0.128c-1.724-0.049-3.45-0.12-5.175-0.204c-0.598-0.03-1.197-0.061-1.795-0.094
		c-0.153-0.035-0.312-0.053-0.471-0.053c-0.074,0-0.149,0.004-0.227,0.014c-0.006-0.002-0.014-0.002-0.02-0.002
		c-0.288-0.018-0.575-0.031-0.863-0.043c-0.165-0.743-0.353-1.483-0.53-2.222c-0.065-0.271-0.13-0.542-0.195-0.813
		c0.008-0.149-0.003-0.3-0.053-0.448c-0.064-0.19-0.127-0.381-0.191-0.572c-0.192-0.808-0.382-1.618-0.562-2.43
		c-0.639-2.883-1.13-5.796-1.65-8.703c-0.135-0.751-0.261-1.507-0.406-2.256c-0.153-0.787-0.286-1.579-0.461-2.36
		c-0.186-0.836-0.375-1.671-0.561-2.505c-0.173-0.767-0.385-1.526-0.577-2.289c-0.339-1.346-0.72-2.687-1.144-4.011
		c-0.465-1.454-0.934-2.911-1.465-4.343c-0.559-1.499-1.118-2.993-1.711-4.478c-0.596-1.501-1.222-2.988-1.848-4.476
		c-1.142-2.723-2.342-5.429-3.586-8.109c-0.647-1.393-1.271-2.799-1.946-4.18c-0.424-0.869-0.847-1.74-1.271-2.609
		c-0.253-0.52-0.496-1.046-0.765-1.557c-0.704-1.34-1.383-2.693-2.124-4.011c-0.646-1.145-1.285-2.295-1.947-3.431
		c-0.086-0.164-0.174-0.328-0.258-0.493c-0.657-1.269-1.357-2.515-2.048-3.766c-0.32-0.581-0.663-1.15-0.995-1.724
		c-0.316-0.543-0.622-1.096-0.949-1.634c-0.737-1.206-1.448-2.436-2.224-3.617c-0.798-1.214-1.573-2.444-2.413-3.627
		c-0.875-1.23-1.742-2.462-2.65-3.664c-0.452-0.597-0.901-1.197-1.358-1.791c-0.155-0.316-0.311-0.633-0.449-0.956
		c-0.602-1.399-1.206-2.797-1.807-4.198c-0.175-0.432-0.342-0.868-0.51-1.302c-0.122-0.312-0.269-0.563-0.569-0.737
		c-0.045-0.026-0.096-0.04-0.143-0.06c0.27-2.044,0.518-4.09,0.738-6.139c0.791-7.356,1.25-14.745,1.381-22.142
		c0.267-14.955-0.838-29.931-3.264-44.69c-0.431-2.625-0.912-5.239-1.436-7.846c0.173-0.049,0.339-0.126,0.494-0.23
		c0.832-0.559,1.681-1.085,2.591-1.506c2.731-1.061,5.643-1.497,8.535-1.907c2.37-0.253,4.739-0.402,7.117-0.555
		c1.146-0.073,2.293-0.157,3.441-0.261c5.577,7.47,10.722,15.243,15.424,23.299c5.184,8.89,9.755,18.129,13.79,27.593
		c4.068,9.731,7.524,19.694,10.341,29.859c2.819,10.18,4.912,20.553,6.375,31.012c1.391,10.685,2.122,21.44,2.183,32.215
		C642.603,355.05,642.493,357.714,642.413,360.375z"/>
	<path style="fill:none;stroke:#161616;stroke-width:0;stroke-linecap:round;stroke-linejoin:round;" d="M513.009,568.316
		c-0.065,0.028-0.131,0.056-0.196,0.083"/>
	
		<line style="fill:none;stroke:#161616;stroke-width:0;stroke-linecap:round;stroke-linejoin:round;" x1="256.066" y1="207.94" x2="256.064" y2="207.943"/>
	<ellipse style="fill:#161616;" cx="400.139" cy="671.304" rx="220.313" ry="24.312"/>
</g>
</svg>
